<?xml version="1.0" encoding="UTF-8"?>
<svg version="1.1" xmlns="http://www.w3.org/2000/svg" width="424" height="420">
<path d="M0 0 C139.92 0 279.84 0 424 0 C424 138.6 424 277.2 424 420 C284.08 420 144.16 420 0 420 C0 281.4 0 142.8 0 0 Z " fill="#32C0A9" transform="translate(0,0)"/>
<path d="M0 0 C139.92 0 279.84 0 424 0 C424 138.6 424 277.2 424 420 C284.08 420 144.16 420 0 420 C0 281.4 0 142.8 0 0 Z M27 20 C27 79.4 27 138.8 27 200 C82.77 200.33 138.54 200.66 196 201 C196.33 204.96 196.66 208.92 197 213 C196.12601563 212.97679687 195.25203125 212.95359375 194.3515625 212.9296875 C186.96073425 212.82122671 179.72714831 213.07890751 172.375 213.875 C171.61783691 213.95347168 170.86067383 214.03194336 170.08056641 214.11279297 C166.05916784 214.5816112 162.71158506 215.42995556 159 217 C157.23557591 217.29181899 155.4634027 217.53900166 153.6875 217.75 C145.68751803 219.00122871 138.44706084 221.92806253 131 225 C130.04222656 225.391875 129.08445312 225.78375 128.09765625 226.1875 C116.79318672 231.08327026 106.05166024 237.33557204 96 244.4375 C95.39438232 244.86248779 94.78876465 245.28747559 94.16479492 245.7253418 C92.73554097 246.76264607 91.36120297 247.87488067 90 249 C90 249.66 90 250.32 90 251 C89.18789062 251.33837891 89.18789062 251.33837891 88.359375 251.68359375 C85.27389965 253.40512553 82.81830698 255.66861945 80.25 258.0625 C79.45166748 258.80330811 79.45166748 258.80330811 78.63720703 259.55908203 C53.49180174 283.16761232 38.68117635 312.94091377 30 346 C29.67644531 347.22074219 29.35289063 348.44148438 29.01953125 349.69921875 C25.60857391 365.2807281 27 379.50081127 27 396 C87.06 396 147.12 396 209 396 C209 339.57 209 283.14 209 225 C212.96 225 216.92 225 221 225 C220.979375 226.4025 220.95875 227.805 220.9375 229.25 C220.9488864 237.28879695 221.42526783 244.99226346 223.46484375 252.78662109 C224.03989049 255.16498504 224.47928744 257.54183757 224.89453125 259.953125 C226.6105987 269.91302763 228.63566108 278.81424613 233 288 C233.53733032 289.41049209 234.05986398 290.8267752 234.5625 292.25 C241.08695993 309.86604181 253.19682346 326.46100872 266 340 C267.12984541 341.3292299 268.25504639 342.66242507 269.375 344 C273.83522336 349.1106726 278.88155393 353.5625489 284 358 C284.68449219 358.59554688 285.36898438 359.19109375 286.07421875 359.8046875 C298.30480264 369.84866406 312.41021439 377.09346413 327 383 C328.134375 383.50660156 329.26875 384.01320313 330.4375 384.53515625 C334.34716738 386.14274975 338.23792012 387.33487668 342.3125 388.4375 C343.09085205 388.64922852 343.8692041 388.86095703 344.67114258 389.07910156 C364.65983949 394.43619281 381.9053707 396 403 396 C403 335.28 403 274.56 403 212 C347.56 212 292.12 212 235 212 C235 208.37 235 204.74 235 201 C237.00900391 201.03480469 237.00900391 201.03480469 239.05859375 201.0703125 C240.85155687 201.08908698 242.64452609 201.10728537 244.4375 201.125 C245.31599609 201.14175781 246.19449219 201.15851563 247.09960938 201.17578125 C255.49786304 201.23776098 262.69925506 199.51409291 270.58203125 196.7734375 C273.19978587 195.93609434 275.82284325 195.30839584 278.5 194.6875 C283.75748751 193.40865169 288.83463495 191.78392399 293.9375 190 C294.659375 189.75080811 295.38125 189.50161621 296.125 189.24487305 C300.05749366 187.84323307 303.4423896 186.21522949 307 184 C307.78246094 183.69191406 308.56492187 183.38382813 309.37109375 183.06640625 C312.79683473 181.67676689 315.90443272 179.84029745 319.0625 177.9375 C319.72080811 177.54119385 320.37911621 177.1448877 321.05737305 176.73657227 C327.35856656 172.88064075 333.19252887 168.56887206 339 164 C340.27617188 163.03126953 340.27617188 163.03126953 341.578125 162.04296875 C351.66909624 154.25261202 360.38106718 145.20741641 368 135 C368.87398438 133.83404297 368.87398438 133.83404297 369.765625 132.64453125 C374.75340656 125.75824725 378.92903129 118.44953906 383 111 C383.5259375 110.04480469 384.051875 109.08960937 384.59375 108.10546875 C399.29665873 80.14648008 403 51.35144464 403 20 C342.94 20 282.88 20 221 20 C221 75.11 221 130.22 221 187 C216.71 187 212.42 187 208 187 C208.03480469 185.8140625 208.06960937 184.628125 208.10546875 183.40625 C208.32722735 172.46502189 207.40157832 162.67490545 205 152 C204.76023438 150.76121094 204.52046875 149.52242187 204.2734375 148.24609375 C203.05683189 142.04942673 201.59364342 136.30291537 199.06640625 130.51171875 C198 128 198 128 197.08984375 125.26953125 C191.30564459 108.26882421 180.73477749 92.48712556 169 79 C168.54383301 78.47229004 168.08766602 77.94458008 167.61767578 77.40087891 C149.75228747 56.9091472 126.90191801 39.8902687 101 31 C100.29488281 30.75121094 99.58976562 30.50242187 98.86328125 30.24609375 C96.58508428 29.46488078 94.2941521 28.73295594 92 28 C91.06929688 27.6803125 90.13859375 27.360625 89.1796875 27.03125 C68.81806251 20.29507331 48.36788228 20 27 20 Z " fill="#000202" transform="translate(0,0)"/>
<path d="M0 0 C22.35890342 0 22.35890342 0 30 0.75 C31.36209595 0.87979248 31.36209595 0.87979248 32.75170898 1.01220703 C49.39090912 2.74602992 66.066803 6.33507962 81 14 C82.308555 14.64595253 83.61843807 15.28922221 84.9296875 15.9296875 C116.46847602 31.43707933 140.67700743 53.06433283 159 83 C159.94166016 84.49466797 159.94166016 84.49466797 160.90234375 86.01953125 C176.22816631 111.07071166 180.96485968 140.15227362 182 169 C179.03 169.33 176.06 169.66 173 170 C172.34 173.3 171.68 176.6 171 180 C114.57 180 58.14 180 0 180 C0 120.6 0 61.2 0 0 Z " fill="#A8D582" transform="translate(27,20)"/>
<path d="M0 0 C59.73 0 119.46 0 181 0 C181 32.50966608 181 32.50966608 177 48 C176.68297351 49.33157504 176.36778765 50.66359002 176.0546875 51.99609375 C171.76951554 69.2988259 164.93430275 90.3173599 153 104 C152.34 104 151.68 104 151 104 C152.18831707 101.6174831 153.38462005 99.23928596 154.5859375 96.86328125 C157.55669094 90.9671789 160.48518178 85.07759294 163.09765625 79.01171875 C164.02770314 76.93823759 165.06404779 74.94670254 166.125 72.9375 C167.76998695 69.69873193 168.72681195 66.61582017 169.4921875 63.07421875 C170.05804093 60.76292511 170.85842391 58.60454246 171.6875 56.375 C173.04503087 52.46959099 172.70880515 50.07562962 172 46 C172.71414673 44.2795556 173.43562554 42.56048649 174.23803711 40.87939453 C177.16759178 33.65359772 176.30342936 24.11193677 176.5625 16.4375 C176.62727539 14.63829102 176.62727539 14.63829102 176.69335938 12.80273438 C176.79856802 9.86858207 176.90070883 6.9343575 177 4 C175.6996582 4.00785522 175.6996582 4.00785522 174.37304688 4.01586914 C171.1227239 4.03302411 167.87242419 4.04550486 164.62207031 4.05493164 C163.22167191 4.05992616 161.82127863 4.06672408 160.42089844 4.07543945 C146.101645 4.16225376 146.101645 4.16225376 139 3 C138.67 3.99 138.34 4.98 138 6 C137.01 5.505 137.01 5.505 136 5 C136 4.34 136 3.68 136 3 C135.0419043 3.16226074 134.08380859 3.32452148 133.09667969 3.49169922 C128.54604802 4.13834692 124.04239399 4.14372511 119.453125 4.1328125 C118.11359772 4.13424759 118.11359772 4.13424759 116.74700928 4.13571167 C114.8712151 4.13638876 112.99541851 4.13456749 111.11962891 4.13037109 C108.24506416 4.12499076 105.37065385 4.130345 102.49609375 4.13671875 C100.66927049 4.13605838 98.84244732 4.13477807 97.015625 4.1328125 C95.72655243 4.13584885 95.72655243 4.13584885 94.41143799 4.13894653 C91.02789506 4.12558179 88.23206898 4.07735633 85 3 C84.67 3.66 84.34 4.32 84 5 C83.01 4.505 83.01 4.505 82 4 C82 4.66 82 5.32 82 6 C81.34 6 80.68 6 80 6 C79.67 7.32 79.34 8.64 79 10 C78.01 9.67 77.02 9.34 76 9 C75.505 6.525 75.505 6.525 75 4 C73.02 3.67 71.04 3.34 69 3 C69 3.99 69 4.98 69 6 C68.34 6 67.68 6 67 6 C67 5.34 67 4.68 67 4 C45.88 4 24.76 4 3 4 C3.33 5.65 3.66 7.3 4 9 C5.65 9 7.3 9 9 9 C8.690625 9.763125 8.38125 10.52625 8.0625 11.3125 C6.28756193 15.80204922 5.90885114 19.1691105 6 24 C5.34 24.33 4.68 24.66 4 25 C3.97494385 25.86802246 3.9498877 26.73604492 3.92407227 27.63037109 C3.82900516 30.84713163 3.72976797 34.06372849 3.62768555 37.28027344 C3.58434154 38.6731259 3.54266604 40.06603131 3.50268555 41.45898438 C3.44497068 43.45976651 3.38078131 45.46035859 3.31640625 47.4609375 C3.27974854 48.66540527 3.24309082 49.86987305 3.20532227 51.11083984 C3 54 3 54 2 56 C1.89611373 57.49481021 1.85351382 58.99409228 1.84178162 60.49246216 C1.8319928 61.43759674 1.82220398 62.38273132 1.81211853 63.35650635 C1.80636307 64.39659851 1.8006076 65.43669067 1.79467773 66.50830078 C1.78477814 67.60099274 1.77487854 68.69368469 1.76467896 69.81948853 C1.7329969 73.44474086 1.70828002 77.07000632 1.68359375 80.6953125 C1.66303001 83.20352527 1.6420337 85.71173452 1.62062073 88.21994019 C1.57099567 94.1555654 1.5257459 100.09121383 1.48259836 106.02688873 C1.42839825 113.44634784 1.36743626 120.86574876 1.30664062 128.28515625 C1.19898582 141.52339793 1.09736924 154.76167888 1 168 C0.67 168 0.34 168 0 168 C0 112.56 0 57.12 0 0 Z " fill="#6AEBC7" transform="translate(222,20)"/>
<path d="M0 0 C0.33 0 0.66 0 1 0 C1 56.43 1 112.86 1 171 C-59.06 171 -119.12 171 -181 171 C-181 131.70125348 -181 131.70125348 -176 113 C-175.79181641 112.20803223 -175.58363281 111.41606445 -175.36914062 110.60009766 C-172.85683715 101.28872046 -169.26636367 92.63833041 -165 84 C-164.49984375 82.90429688 -163.9996875 81.80859375 -163.484375 80.6796875 C-153.91487072 60.28642352 -138.02137001 39.62591391 -120 26 C-119.34 26 -118.68 26 -118 26 C-118 25.34 -118 24.68 -118 24 C-115.8125 22.2734375 -115.8125 22.2734375 -113 20.375 C-112.071875 19.74335938 -111.14375 19.11171875 -110.1875 18.4609375 C-109.465625 17.97882813 -108.74375 17.49671875 -108 17 C-107.34 17.33 -106.68 17.66 -106 18 C-108.03090502 19.97064078 -110.07346096 21.92603791 -112.125 23.875 C-112.69476563 24.43058594 -113.26453125 24.98617187 -113.8515625 25.55859375 C-117.46441449 28.96617005 -120.22145048 30.46255363 -125 32 C-126.09147157 33.81713229 -126.09147157 33.81713229 -127 36 C-129.30750186 38.38828199 -131.67235065 40.66979718 -134.09960938 42.93359375 C-136.81578529 45.54488404 -138.37251175 47.27428852 -139 51 C-140.89018615 53.81222818 -142.93060778 56.46530389 -146 58 C-146.45375 58.763125 -146.9075 59.52625 -147.375 60.3125 C-149 63 -149 63 -151.0625 64.875 C-153.24429938 66.94491074 -153.24429938 66.94491074 -153.875 70.1875 C-154.92492509 73.74557949 -155.94952411 75.55387922 -158.0625 78.5 C-160.7952075 82.36803525 -161.52514609 85.25146091 -162 90 C-162.70576172 90.69609375 -162.70576172 90.69609375 -163.42578125 91.40625 C-165.38161743 93.38635214 -165.78654772 94.94955395 -166.5 97.625 C-167.43000614 100.97983889 -168.41317344 104.2762346 -169.5625 107.5625 C-170.84679681 111.34814976 -171.77052243 115.13992557 -172.5703125 119.0546875 C-173 121 -173 121 -174 124 C-174.21947134 125.49565657 -174.40464211 126.99659149 -174.5625 128.5 C-174.64628906 129.2734375 -174.73007813 130.046875 -174.81640625 130.84375 C-175.04241898 133.13752206 -175.04241898 133.13752206 -175 136 C-175.165 136.969375 -175.33 137.93875 -175.5 138.9375 C-176.01175495 142.29233801 -176.03425877 145.54588207 -176 148.9375 C-175.94225194 155.53727809 -176.70262337 161.51311684 -178 168 C-157.21 168 -136.42 168 -115 168 C-115 167.34 -115 166.68 -115 166 C-107.74 166 -100.48 166 -93 166 C-93 167.32 -93 168.64 -93 170 C-62.31 170 -31.62 170 0 170 C0 113.9 0 57.8 0 0 Z " fill="#9B8E68" transform="translate(208,225)"/>
<path d="M0 0 C52.47 0 104.94 0 159 0 C159 60.06 159 120.12 159 182 C120.24087591 182 120.24087591 182 109 178 C108.34 177.34 107.68 176.68 107 176 C112.78898419 175.79325056 117.42932723 176.40837921 123 178 C123 178.66 123 179.32 123 180 C134.55 180 146.1 180 158 180 C157.9285376 177.47263184 157.8570752 174.94526367 157.78344727 172.34130859 C156.89458954 139.00750257 156.87668882 105.68390826 156.92797339 72.34171844 C156.93942822 64.75443679 156.94471761 57.16715391 156.94967639 49.57986569 C156.95995266 34.05323374 156.97738027 18.52661921 157 3 C156.38435905 3.00092179 155.76871809 3.00184359 155.13442135 3.00279331 C139.99369953 3.02510119 124.85298293 3.04153252 109.7122488 3.05181217 C102.38962137 3.05691837 95.06700505 3.06384943 87.74438477 3.07543945 C81.34487733 3.08556337 74.94537796 3.09189438 68.54586273 3.09408849 C65.17293412 3.09536635 61.80004647 3.09882526 58.42712212 3.10573006 C39.26195523 3.14333013 20.14875394 2.73109588 1 2 C0.67 1.34 0.34 0.68 0 0 Z " fill="#13CDC6" transform="translate(243,213)"/>
<path d="M0 0 C0.33 0 0.66 0 1 0 C1 56.43 1 112.86 1 171 C-59.06 171 -119.12 171 -181 171 C-181 132.69642857 -181 132.69642857 -177 117 C-176.67 117 -176.34 117 -176 117 C-175.85802289 125.80258066 -176.19844817 133.59534451 -179 142 C-179.33 151.24 -179.66 160.48 -180 170 C-120.6 170 -61.2 170 0 170 C0 113.9 0 57.8 0 0 Z " fill="#325850" transform="translate(208,225)"/>
<path d="M0 0 C0 0.66 0 1.32 0 2 C0.66 2.33 1.32 2.66 2 3 C2 3.33 2 3.66 2 4 C3.32 4 4.64 4 6 4 C6.33 5.65 6.66 7.3 7 9 C7.99 9 8.98 9 10 9 C10.66 11.31 11.32 13.62 12 16 C10.68 16 9.36 16 8 16 C7.34 16.66 6.68 17.32 6 18 C6 16.68 6 15.36 6 14 C5.34 14 4.68 14 4 14 C4 13.34 4 12.68 4 12 C3.34 12.66 2.68 13.32 2 14 C2 14.66 2 15.32 2 16 C2.66 16 3.32 16 4 16 C4.33 17.65 4.66 19.3 5 21 C4.01 21.33 3.02 21.66 2 22 C-0.79703452 20.60148274 -0.86808055 18.86309036 -2 16 C-2.95824253 14.63634717 -3.94721175 13.29205831 -5 12 C-5.99 12.495 -5.99 12.495 -7 13 C-8.5625 11.3125 -8.5625 11.3125 -10 9 C-9.6875 6.25 -9.6875 6.25 -9 4 C-10.65 4.66 -12.3 5.32 -14 6 C-13.979375 6.763125 -13.95875 7.52625 -13.9375 8.3125 C-14 11 -14 11 -15 14 C-14.87625 14.78375 -14.7525 15.5675 -14.625 16.375 C-15 19 -15 19 -16.5546875 20.43359375 C-18.33416084 21.69494735 -20.12954625 22.87868206 -22 24 C-23 23 -23 23 -23.375 20.125 C-23.25125 19.09375 -23.1275 18.0625 -23 17 C-22.21625 16.5875 -21.4325 16.175 -20.625 15.75 C-17.80993181 14.2863468 -17.80993181 14.2863468 -17.36328125 11.703125 C-17.08448704 9.93316542 -16.84584835 8.15630264 -16.65234375 6.375 C-15.81892126 3.34074327 -14.66676494 2.57309168 -12 1 C-8.01475737 -0.18480186 -4.13487136 -0.08107591 0 0 Z " fill="#32F2CA" transform="translate(253,43)"/>
<path d="M0 0 C3.02735904 -0.01357137 6.05465631 -0.0234543 9.08203125 -0.03125 C9.93220825 -0.03543945 10.78238525 -0.03962891 11.6583252 -0.04394531 C17.81902273 -0.05582422 23.8822532 0.23012625 30 1 C29.67 1.66 29.34 2.32 29 3 C16.13 2.505 16.13 2.505 3 2 C2.979375 6.24875 2.95875 10.4975 2.9375 14.875 C2.928396 16.2141748 2.91929199 17.55334961 2.90991211 18.93310547 C2.90741455 19.98385254 2.90491699 21.03459961 2.90234375 22.1171875 C2.89710693 23.19597168 2.89187012 24.27475586 2.88647461 25.38623047 C2.82116894 27.98232186 2.82116894 27.98232186 4 30 C4.09501634 31.36590466 4.13072825 32.73626486 4.1328125 34.10546875 C4.13410156 34.92466797 4.13539062 35.74386719 4.13671875 36.58789062 C4.13285156 37.44576172 4.12898438 38.30363281 4.125 39.1875 C4.12886719 40.02603516 4.13273437 40.86457031 4.13671875 41.72851562 C4.13542969 42.55416016 4.13414063 43.37980469 4.1328125 44.23046875 C4.13168457 44.97707764 4.13055664 45.72368652 4.12939453 46.49291992 C4 49 4 49 3.49560547 52.37817383 C3.01514956 55.8892888 2.9009832 59.17864914 2.9375 62.71875 C2.94587891 63.97478027 2.95425781 65.23081055 2.96289062 66.52490234 C2.97513672 67.83668457 2.98738281 69.1484668 3 70.5 C3.06271671 80.70591422 2.99875075 90.83414411 2 101 C1.67 101 1.34 101 1 101 C0.10602219 67.32842092 -0.13072875 33.68266377 0 0 Z " fill="#C5D57A" transform="translate(27,20)"/>
<path d="M0 0 C0.99 0.495 0.99 0.495 2 1 C-0.03090502 2.97064078 -2.07346096 4.92603791 -4.125 6.875 C-4.69476563 7.43058594 -5.26453125 7.98617187 -5.8515625 8.55859375 C-9.46441449 11.96617005 -12.22145048 13.46255363 -17 15 C-18.09147157 16.81713229 -18.09147157 16.81713229 -19 19 C-21.30750186 21.38828199 -23.67235065 23.66979718 -26.09960938 25.93359375 C-28.81578529 28.54488404 -30.37251175 30.27428852 -31 34 C-32.89018615 36.81222818 -34.93060778 39.46530389 -38 41 C-38.45375 41.763125 -38.9075 42.52625 -39.375 43.3125 C-41 46 -41 46 -43.0625 47.875 C-45.24429938 49.94491074 -45.24429938 49.94491074 -45.875 53.1875 C-46.92492509 56.74557949 -47.94952411 58.55387922 -50.0625 61.5 C-52.7952075 65.36803525 -53.52514609 68.25146091 -54 73 C-55.4375 74.6875 -55.4375 74.6875 -57 76 C-57.350625 76.70125 -57.70125 77.4025 -58.0625 78.125 C-59 80 -59 80 -61 81 C-62.13350534 83.01669827 -62.13350534 83.01669827 -63 85 C-64 83 -64 83 -63.50390625 81.1796875 C-56.67982433 64.47342886 -48.1127457 49.23243676 -37 35 C-36.26523437 34.05769531 -35.53046875 33.11539063 -34.7734375 32.14453125 C-28.03831558 23.70777959 -20.66927496 15.50195622 -12 9 C-11.34 9 -10.68 9 -10 9 C-10 8.34 -10 7.68 -10 7 C-7.8125 5.2734375 -7.8125 5.2734375 -5 3.375 C-3.6078125 2.42753906 -3.6078125 2.42753906 -2.1875 1.4609375 C-1.465625 0.97882813 -0.74375 0.49671875 0 0 Z " fill="#79756A" transform="translate(100,242)"/>
<path d="M0 0 C0.33 0 0.66 0 1 0 C1 40.59 1 81.18 1 123 C10.04972556 122.3604636 10.04972556 122.3604636 19 121 C18.01 121.99 17.02 122.98 16 124 C17.97909398 124.02686553 19.95828971 124.04633375 21.9375 124.0625 C23.03964844 124.07410156 24.14179687 124.08570313 25.27734375 124.09765625 C27.91447634 124.31262571 27.91447634 124.31262571 29 123 C36.69261815 122.56262706 44.35617729 123.15737387 52 124 C51.34 124.66 50.68 125.32 50 126 C33.5 126 17 126 0 126 C0 84.42 0 42.84 0 0 Z " fill="#9CB273" transform="translate(27,74)"/>
<path d="M0 0 C3.69526748 0.35159086 7.38409241 0.47458284 11.09277344 0.5703125 C11.80725647 0.58924561 12.5217395 0.60817871 13.25787354 0.62768555 C16.23398688 0.70351431 19.21023107 0.77291012 22.18652344 0.84130859 C24.38454946 0.89312192 26.58239125 0.95026428 28.78027344 1.0078125 C30.07819824 1.03810547 31.37612305 1.06839844 32.71337891 1.09960938 C35.34994377 1.24984982 37.53505135 1.50819791 40.03808594 2.2890625 C40.36808594 1.6290625 40.69808594 0.9690625 41.03808594 0.2890625 C41.65683594 0.4746875 42.27558594 0.6603125 42.91308594 0.8515625 C47.37040653 1.47558738 51.59294705 0.85009945 56.03808594 0.2890625 C56.03808594 0.6190625 56.03808594 0.9490625 56.03808594 1.2890625 C63.95808594 1.6190625 71.87808594 1.9490625 80.03808594 2.2890625 C80.36808594 1.2990625 80.69808594 0.3090625 81.03808594 -0.7109375 C81.53308594 0.2790625 81.53308594 0.2790625 82.03808594 1.2890625 C83.02808594 1.9490625 84.01808594 2.6090625 85.03808594 3.2890625 C45.76808594 3.2890625 6.49808594 3.2890625 -33.96191406 3.2890625 C-30.92862815 0.25577659 -27.35347343 0.85961058 -23.27441406 0.7265625 C-21.68705678 0.66575908 -20.09980988 0.60199592 -18.51269531 0.53515625 C-17.73490723 0.50276855 -16.95711914 0.47038086 -16.15576172 0.43701172 C-13.73999149 0.3113715 -13.73999149 0.3113715 -10.50488281 -0.30078125 C-6.7944562 -0.73032347 -3.6862324 -0.43548069 0 0 Z " fill="#7ECA95" transform="translate(110.9619140625,196.7109375)"/>
<path d="M0 0 C21.12 0 42.24 0 64 0 C64 0.33 64 0.66 64 1 C43.34672319 2.32635723 22.68469789 2.09878805 2 2 C2.33 3.65 2.66 5.3 3 7 C4.65 7 6.3 7 8 7 C7.690625 7.763125 7.38125 8.52625 7.0625 9.3125 C5.28756193 13.80204922 4.90885114 17.1691105 5 22 C4.34 22.33 3.68 22.66 3 23 C2.98018066 23.86802246 2.96036133 24.73604492 2.93994141 25.63037109 C2.86190128 28.84726267 2.77521119 32.06377045 2.68261719 35.28027344 C2.64430673 36.67308572 2.60945741 38.06599765 2.578125 39.45898438 C2.53252093 41.45986308 2.47348377 43.46042146 2.4140625 45.4609375 C2.36693115 47.26763916 2.36693115 47.26763916 2.31884766 49.11083984 C2 52 2 52 0 54 C0 36.18 0 18.36 0 0 Z " fill="#4CF2BD" transform="translate(223,22)"/>
<path d="M0 0 C3.96 0 7.92 0 12 0 C12.33 5.94 12.66 11.88 13 18 C11 16 11 16 10.8046875 12.5234375 C10.81798507 11.14049032 10.84183768 9.75761346 10.875 8.375 C10.88853516 7.31539062 10.88853516 7.31539062 10.90234375 6.234375 C10.92592397 4.48943902 10.96179539 2.74467705 11 1 C8.03 1.66 5.06 2.32 2 3 C1.67 58.44 1.34 113.88 1 171 C0.67 171 0.34 171 0 171 C0 114.57 0 58.14 0 0 Z " fill="#001111" transform="translate(209,225)"/>
<path d="M0 0 C0.33 1.32 0.66 2.64 1 4 C2.32 4.33 3.64 4.66 5 5 C4.01 5.33 3.02 5.66 2 6 C2.00523682 6.77714355 2.01047363 7.55428711 2.01586914 8.35498047 C2.03660156 11.86164549 2.04964821 15.36829763 2.0625 18.875 C2.07087891 20.09832031 2.07925781 21.32164062 2.08789062 22.58203125 C2.09111328 23.74863281 2.09433594 24.91523438 2.09765625 26.1171875 C2.10289307 27.19597168 2.10812988 28.27475586 2.11352539 29.38623047 C2 32 2 32 1 34 C1.66 34.33 2.32 34.66 3 35 C2.67 37.97 2.34 40.94 2 44 C3.32 44.66 4.64 45.32 6 46 C4.625 47.5 4.625 47.5 3 49 C2.34 49 1.68 49 1 49 C1 49.99 1 50.98 1 52 C1.66 52.33 2.32 52.66 3 53 C2.84152588 54.01006104 2.68305176 55.02012207 2.51977539 56.06079102 C2.03375317 59.74419564 1.79905612 63.31605321 1.68359375 67.02734375 C1.64169922 68.31318359 1.59980469 69.59902344 1.55664062 70.92382812 C1.516843 72.26171625 1.47713049 73.59960691 1.4375 74.9375 C1.39423346 76.30274562 1.35061679 77.66798018 1.30664062 79.03320312 C1.20098847 82.35537652 1.09888605 85.67761946 1 89 C0.34 89 -0.32 89 -1 89 C-1.02329322 79.31535396 -1.0410009 69.63071775 -1.05181217 59.94604969 C-1.05700415 55.44782831 -1.06403389 50.94962627 -1.07543945 46.45141602 C-1.08640052 42.10068767 -1.0923045 37.74997778 -1.09487724 33.39923668 C-1.09670789 31.74928179 -1.10028199 30.09932778 -1.10573006 28.44938087 C-1.13595137 18.90693521 -0.92427792 9.50668083 0 0 Z " fill="#A7C979" transform="translate(29,108)"/>
<path d="M0 0 C0.33 0 0.66 0 1 0 C1 30.03 1 60.06 1 91 C-37.75912409 91 -37.75912409 91 -49 87 C-49.66 86.34 -50.32 85.68 -51 85 C-45.21101581 84.79325056 -40.57067277 85.40837921 -35 87 C-35 87.66 -35 88.32 -35 89 C-23.45 89 -11.9 89 0 89 C-0.08378906 86.17824219 -0.16757812 83.35648437 -0.25390625 80.44921875 C-1.0003582 53.59104573 -0.89860749 26.85226651 0 0 Z " fill="#13C3C2" transform="translate(401,304)"/>
<path d="M0 0 C1.65498253 -0.00021904 1.65498253 -0.00021904 3.34339905 -0.0004425 C6.96853645 0.00025083 10.59362164 0.00801606 14.21875 0.01586914 C16.74080375 0.01773538 19.26285787 0.01915831 21.78491211 0.02015686 C27.73099496 0.02357711 33.67706122 0.03144828 39.62313557 0.04150635 C46.39707111 0.05271414 53.17100758 0.05818966 59.9449501 0.06320179 C73.86956031 0.07363226 87.79415414 0.09120252 101.71875 0.11352539 C101.71875 0.44352539 101.71875 0.77352539 101.71875 1.11352539 C94.66024478 2.02012239 87.6379018 2.22282008 80.53125 2.23852539 C79.68852539 2.24303711 78.84580078 2.24754883 77.97753906 2.25219727 C72.80351982 2.24001833 67.83958714 1.8577301 62.71875 1.11352539 C62.38875 2.10352539 62.05875 3.09352539 61.71875 4.11352539 C60.72875 3.61852539 60.72875 3.61852539 59.71875 3.11352539 C59.71875 2.45352539 59.71875 1.79352539 59.71875 1.11352539 C58.7606543 1.27578613 57.80255859 1.43804688 56.81542969 1.60522461 C52.26479802 2.25187231 47.76114399 2.2572505 43.171875 2.24633789 C41.83234772 2.24777298 41.83234772 2.24777298 40.46575928 2.24923706 C38.5899651 2.24991415 36.71416851 2.24809288 34.83837891 2.24389648 C31.96381416 2.23851615 29.08940385 2.24387039 26.21484375 2.25024414 C24.38802049 2.24958377 22.56119732 2.24830346 20.734375 2.24633789 C19.44530243 2.24937424 19.44530243 2.24937424 18.13018799 2.25247192 C14.74664506 2.23910718 11.95081898 2.19088172 8.71875 1.11352539 C8.38875 1.77352539 8.05875 2.43352539 7.71875 3.11352539 C7.05875 2.78352539 6.39875 2.45352539 5.71875 2.11352539 C5.71875 2.77352539 5.71875 3.43352539 5.71875 4.11352539 C5.05875 4.11352539 4.39875 4.11352539 3.71875 4.11352539 C3.38875 5.43352539 3.05875 6.75352539 2.71875 8.11352539 C1.72875 7.78352539 0.73875 7.45352539 -0.28125 7.11352539 C-0.61125 5.46352539 -0.94125 3.81352539 -1.28125 2.11352539 C-4.25125 1.61852539 -4.25125 1.61852539 -7.28125 1.11352539 C-7.28125 2.10352539 -7.28125 3.09352539 -7.28125 4.11352539 C-7.94125 4.11352539 -8.60125 4.11352539 -9.28125 4.11352539 C-9.28125 3.45352539 -9.28125 2.79352539 -9.28125 2.11352539 C-12.58125 2.11352539 -15.88125 2.11352539 -19.28125 2.11352539 C-19.28125 1.78352539 -19.28125 1.45352539 -19.28125 1.11352539 C-12.81734516 0.14655593 -6.52979203 -0.02283983 0 0 Z " fill="#2EF3D0" transform="translate(298.28125,21.886474609375)"/>
<path d="M0 0 C32.01 0 64.02 0 97 0 C97 0.33 97 0.66 97 1 C83.82019444 1.97075055 70.64805688 2.35516897 57.4375 2.625 C55.8321489 2.65918533 55.8321489 2.65918533 54.19436646 2.69406128 C36.42539399 3.06034808 18.75012166 2.92407079 1 2 C0.67 1.34 0.34 0.68 0 0 Z " fill="#16C3BB" transform="translate(243,213)"/>
<path d="M0 0 C0.99 0 1.98 0 3 0 C-0.30330011 19.28498063 -7.89813036 42.97874819 -21 58 C-21.66 58 -22.32 58 -23 58 C-21.81168293 55.6174831 -20.61537995 53.23928596 -19.4140625 50.86328125 C-16.44330906 44.9671789 -13.51481822 39.07759294 -10.90234375 33.01171875 C-9.97229686 30.93823759 -8.93595221 28.94670254 -7.875 26.9375 C-6.22996041 23.69862828 -5.27850004 20.61222339 -4.5 17.07421875 C-3.94745117 14.78200447 -3.21312105 12.60118158 -2.4375 10.375 C-1.25749169 6.93628891 -0.46387786 3.61824732 0 0 Z " fill="#32E7CA" transform="translate(396,66)"/>
<path d="M0 0 C7.26 0 14.52 0 22 0 C22 1.32 22 2.64 22 4 C3.85 4 -14.3 4 -33 4 C-33 3.67 -33 3.34 -33 3 C-28.77717482 2.19604975 -24.80386236 1.88188637 -20.5078125 1.90234375 C-19.30898437 1.90556641 -18.11015625 1.90878906 -16.875 1.91210938 C-15.01875 1.92467773 -15.01875 1.92467773 -13.125 1.9375 C-11.86429688 1.94201172 -10.60359375 1.94652344 -9.3046875 1.95117188 C-6.20307614 1.9629204 -3.10156275 1.97934833 0 2 C0 1.34 0 0.68 0 0 Z " fill="#8B8E73" transform="translate(93,391)"/>
<path d="M0 0 C9.57 0 19.14 0 29 0 C28.67 0.66 28.34 1.32 28 2 C15.13 1.505 15.13 1.505 2 1 C1.979375 5.24875 1.95875 9.4975 1.9375 13.875 C1.928396 15.2141748 1.91929199 16.55334961 1.90991211 17.93310547 C1.90741455 18.98385254 1.90491699 20.03459961 1.90234375 21.1171875 C1.89710693 22.19597168 1.89187012 23.27475586 1.88647461 24.38623047 C1.82116894 26.98232186 1.82116894 26.98232186 3 29 C3.09503971 30.41286385 3.13072853 31.8300385 3.1328125 33.24609375 C3.13410156 34.08333984 3.13539062 34.92058594 3.13671875 35.78320312 C3.13285156 36.65912109 3.12898438 37.53503906 3.125 38.4375 C3.12886719 39.30955078 3.13273437 40.18160156 3.13671875 41.08007812 C3.13478516 42.33788086 3.13478516 42.33788086 3.1328125 43.62109375 C3.13168457 44.3886499 3.13055664 45.15620605 3.12939453 45.94702148 C3 48 3 48 2 51 C1.34 51 0.68 51 0 51 C0 34.17 0 17.34 0 0 Z " fill="#D6E67C" transform="translate(28,21)"/>
<path d="M0 0 C0.99 0.33 1.98 0.66 3 1 C2.01 1.66 1.02 2.32 0 3 C1.97909398 3.02686553 3.95828971 3.04633375 5.9375 3.0625 C7.59072266 3.07990234 7.59072266 3.07990234 9.27734375 3.09765625 C11.91447634 3.31262571 11.91447634 3.31262571 13 2 C20.69261815 1.56262706 28.35617729 2.15737387 36 3 C34 5 34 5 31.89926147 5.24050903 C31.03322296 5.23606781 30.16718445 5.23162659 29.27490234 5.22705078 C28.29403656 5.22689972 27.31317078 5.22674866 26.30258179 5.22659302 C25.24108917 5.21627045 24.17959656 5.20594788 23.0859375 5.1953125 C22.00116119 5.1924826 20.91638489 5.18965271 19.79873657 5.18673706 C16.32404687 5.17551578 12.84961218 5.15040762 9.375 5.125 C7.02344121 5.11497272 4.6718784 5.10584643 2.3203125 5.09765625 C-3.45321244 5.07557011 -9.22658801 5.04207345 -15 5 C-15 4.01 -15 3.02 -15 2 C-14.08476562 1.93941406 -13.16953125 1.87882813 -12.2265625 1.81640625 C-10.44378906 1.69072266 -10.44378906 1.69072266 -8.625 1.5625 C-7.44164062 1.48128906 -6.25828125 1.40007812 -5.0390625 1.31640625 C-2.08481099 1.18915064 -2.08481099 1.18915064 0 0 Z " fill="#9AC087" transform="translate(43,195)"/>
<path d="M0 0 C-1 3 -1 3 -3.5625 4.625 C-6.43631793 5.77452717 -8.31917927 6.25563079 -11.3125 6.5625 C-13.1378125 6.7790625 -13.1378125 6.7790625 -15 7 C-15.33 7.66 -15.66 8.32 -16 9 C-18.79998997 10.52726726 -21.56661671 11.84144514 -24.5625 12.9375 C-27.48208523 14.21013972 -29.54856838 15.97756891 -32 18 C-33.65261839 19.02304948 -35.31791365 20.02616054 -37 21 C-37.99 21.66 -38.98 22.32 -40 23 C-42.1875 22.625 -42.1875 22.625 -44 22 C-35.40854711 12.76739391 -23.65460152 8.18255814 -12 4 C-9.301687 2.91569767 -6.61254895 1.81174286 -3.92578125 0.69921875 C-2 0 -2 0 0 0 Z " fill="#4F8977" transform="translate(146,220)"/>
<path d="M0 0 C0.33 0 0.66 0 1 0 C1.33 11.22 1.66 22.44 2 34 C2.99 33.505 2.99 33.505 4 33 C3.125 36.875 3.125 36.875 2 38 C1.87709282 39.65644366 1.82216092 41.31798993 1.79467773 42.97875977 C1.77473251 44.03978409 1.75478729 45.10080841 1.73423767 46.19398499 C1.71752518 47.348134 1.70081268 48.50228302 1.68359375 49.69140625 C1.66281265 50.86638168 1.64203156 52.04135712 1.62062073 53.25193787 C1.55499876 57.02206324 1.4961817 60.79226082 1.4375 64.5625 C1.3943268 67.11133573 1.35071292 69.66016403 1.30664062 72.20898438 C1.19930455 78.47257892 1.0975621 84.73624601 1 91 C0.67 91 0.34 91 0 91 C0 60.97 0 30.94 0 0 Z " fill="#2CEBB9" transform="translate(223,95)"/>
<path d="M0 0 C0.66 0.33 1.32 0.66 2 1 C1.34 2.32 0.68 3.64 0 5 C1.65 5.33 3.3 5.66 5 6 C4.319375 6.763125 3.63875 7.52625 2.9375 8.3125 C2.298125 9.199375 1.65875 10.08625 1 11 C1.33 11.99 1.66 12.98 2 14 C-1.83325617 16.70582788 -4.32538149 17.32613618 -9 17 C-8.505 15.515 -8.505 15.515 -8 14 C-8.33 13.34 -8.66 12.68 -9 12 C-8.525625 11.54625 -8.05125 11.0925 -7.5625 10.625 C-5.90972192 9.06741796 -5.90972192 9.06741796 -5 7 C-4.34 7 -3.68 7 -3 7 C-3 6.34 -3 5.68 -3 5 C-2.34 5 -1.68 5 -1 5 C-1.33 4.01 -1.66 3.02 -2 2 C-1.34 1.34 -0.68 0.68 0 0 Z " fill="#2BF2CD" transform="translate(275,44)"/>
<path d="M0 0 C0.66 0.33 1.32 0.66 2 1 C-0.03090502 2.97064078 -2.07346096 4.92603791 -4.125 6.875 C-4.69476563 7.43058594 -5.26453125 7.98617187 -5.8515625 8.55859375 C-9.46441449 11.96617005 -12.22145048 13.46255363 -17 15 C-18.16202977 16.83913906 -18.16202977 16.83913906 -19 19 C-20.42658012 20.61065497 -21.91109142 22.17111709 -23.4375 23.6875 C-24.21996094 24.47511719 -25.00242187 25.26273437 -25.80859375 26.07421875 C-28 28 -28 28 -31 29 C-29.41561568 25.08509687 -26.72378048 22.45608197 -23.75 19.5625 C-23.25636963 19.07676514 -22.76273926 18.59103027 -22.25415039 18.09057617 C-12.94622082 9 -12.94622082 9 -10 9 C-10 8.34 -10 7.68 -10 7 C-7.8125 5.2734375 -7.8125 5.2734375 -5 3.375 C-4.071875 2.74335938 -3.14375 2.11171875 -2.1875 1.4609375 C-1.465625 0.97882813 -0.74375 0.49671875 0 0 Z " fill="#5E7A6D" transform="translate(100,242)"/>
<path d="M0 0 C0.33 1.32 0.66 2.64 1 4 C2.32 4.33 3.64 4.66 5 5 C4.01 5.33 3.02 5.66 2 6 C2.00523682 6.77714355 2.01047363 7.55428711 2.01586914 8.35498047 C2.03660156 11.86164549 2.04964821 15.36829763 2.0625 18.875 C2.07087891 20.09832031 2.07925781 21.32164062 2.08789062 22.58203125 C2.09111328 23.74863281 2.09433594 24.91523438 2.09765625 26.1171875 C2.10289307 27.19597168 2.10812988 28.27475586 2.11352539 29.38623047 C2 32 2 32 1 34 C1.66 34.33 2.32 34.66 3 35 C2.34 36.32 1.68 37.64 1 39 C-0.76443795 35.95058618 -1.24809793 33.76349534 -1.23046875 30.25390625 C-1.22917969 29.33947754 -1.22789063 28.42504883 -1.2265625 27.48291016 C-1.21367187 26.5191748 -1.20078125 25.55543945 -1.1875 24.5625 C-1.18105469 23.58071777 -1.17460937 22.59893555 -1.16796875 21.58740234 C-1.09179283 14.35664087 -0.76013638 7.19414787 0 0 Z " fill="#B1D073" transform="translate(29,108)"/>
<path d="M0 0 C0.66 0 1.32 0 2 0 C1.79503906 0.80824219 1.59007812 1.61648438 1.37890625 2.44921875 C1.10949219 3.51785156 0.84007812 4.58648437 0.5625 5.6875 C0.29566406 6.74324219 0.02882813 7.79898437 -0.24609375 8.88671875 C-0.70283727 10.7728565 -1.13167174 12.66646157 -1.5078125 14.5703125 C-2.03141175 17.15506436 -2.69839852 19.65617317 -3.4375 22.1875 C-3.80681641 23.47720703 -3.80681641 23.47720703 -4.18359375 24.79296875 C-5 27 -5 27 -7 29 C-7.62241367 18.12505002 -6.22030343 9.14270321 0 0 Z " fill="#8D8063" transform="translate(39,322)"/>
<path d="M0 0 C4.96968525 1.46393829 9.21428792 3.57757467 13.6875 6.125 C14.73164062 6.71680054 14.73164062 6.71680054 15.796875 7.32055664 C21.79026546 10.77462041 27.80172139 14.40745301 33 19 C33 19.66 33 20.32 33 21 C30 21 30 21 28.2578125 19.27734375 C27.51273438 18.52582031 26.76765625 17.77429688 26 17 C23.64411038 15.45065612 21.30411182 13.98461239 18.875 12.5625 C18.2135498 12.16853027 17.55209961 11.77456055 16.87060547 11.36865234 C12.28411078 8.6661948 7.62380865 6.23833059 2.7578125 4.0703125 C1 3 1 3 0 0 Z " fill="#D1E388" transform="translate(111,36)"/>
<path d="M0 0 C0.66 0 1.32 0 2 0 C0.61074928 3.28513289 -0.86460482 4.94667009 -3.74609375 7.0234375 C-4.49632812 7.56718018 -5.2465625 8.11092285 -6.01953125 8.67114258 C-6.81746094 9.23341553 -7.61539062 9.79568848 -8.4375 10.375 C-9.24703125 10.95209717 -10.0565625 11.52919434 -10.890625 12.1237793 C-26.34314534 23 -26.34314534 23 -31 23 C-31 22.34 -31 21.68 -31 21 C-29.02 20.34 -27.04 19.68 -25 19 C-25 18.34 -25 17.68 -25 17 C-23.3970947 16.18501438 -21.79262722 15.37310073 -20.1875 14.5625 C-18.84751953 13.88380859 -18.84751953 13.88380859 -17.48046875 13.19140625 C-15 12 -15 12 -12 11 C-11.67 10.01 -11.34 9.02 -11 8 C-9 7 -7 6 -5 5 C-3.3142876 3.35259924 -1.6436814 1.68933922 0 0 Z " fill="#20DDC0" transform="translate(342,158)"/>
<path d="M0 0 C0.33 0 0.66 0 1 0 C1.25127192 15.57885884 1.25127192 15.57885884 -1 21.73413086 C-2.05986833 25.19552214 -2.31464929 28.09892428 -2.4140625 31.7109375 C-2.45273437 32.95488281 -2.49140625 34.19882812 -2.53125 35.48046875 C-2.5621875 36.76566406 -2.593125 38.05085938 -2.625 39.375 C-2.66367187 40.68339844 -2.70234375 41.99179687 -2.7421875 43.33984375 C-2.83619957 46.55975716 -2.92185821 49.7796688 -3 53 C-3.33 53 -3.66 53 -4 53 C-4.44209575 34.8621716 -4.47178374 17.72742838 0 0 Z " fill="#6E6A55" transform="translate(31,342)"/>
<path d="M0 0 C0.33 0 0.66 0 1 0 C3.15578562 11.2812471 3.60040282 22.54650524 4 34 C3.34 34 2.68 34 2 34 C2 33.01 2 32.02 2 31 C1.01 31 0.02 31 -1 31 C-0.67 30.01 -0.34 29.02 0 28 C0.068991 25.93854893 0.08467727 23.87498599 0.0625 21.8125 C0.04896484 20.18248047 0.04896484 20.18248047 0.03515625 18.51953125 C0.02355469 17.68808594 0.01195312 16.85664063 0 16 C-0.66 15.67 -1.32 15.34 -2 15 C-1.34 10.05 -0.68 5.1 0 0 Z " fill="#7CB77D" transform="translate(205,155)"/>
<path d="M0 0 C0.99 0.495 0.99 0.495 2 1 C2.04898438 2.24136719 2.09796875 3.48273438 2.1484375 4.76171875 C2.22349799 6.40366694 2.29904439 8.04559297 2.375 9.6875 C2.4059375 10.50412109 2.436875 11.32074219 2.46875 12.16210938 C2.6822652 16.55696387 3.14379411 19.95460473 5 24 C5.9814127 27.82071986 6.10576833 31.37508236 6.0625 35.3125 C6.05347656 36.38113281 6.04445312 37.44976562 6.03515625 38.55078125 C6.02355469 39.35902344 6.01195312 40.16726563 6 41 C3.96597466 37.54471009 3.4679095 34.32409931 2.9375 30.375 C2.44601694 26.04134821 2.44601694 26.04134821 1 22 C0.06308212 14.68972717 -0.14656989 7.36106568 0 0 Z " fill="#299E9C" transform="translate(221,225)"/>
<path d="M0 0 C1.27557353 2.54457194 2.54183937 5.09362972 3.8046875 7.64453125 C4.49473602 9.03388181 5.18484183 10.42320391 5.875 11.8125 C6.21402344 12.49892578 6.55304688 13.18535156 6.90234375 13.89257812 C8.58783853 17.2795895 10.32526565 20.54614238 12.3203125 23.76171875 C14 27 14 27 13.75 29.4375 C13.5025 29.953125 13.255 30.46875 13 31 C12.59007812 30.22914063 12.18015625 29.45828125 11.7578125 28.6640625 C11.21898437 27.66117187 10.68015625 26.65828125 10.125 25.625 C9.32449219 24.12839844 9.32449219 24.12839844 8.5078125 22.6015625 C7.1179862 19.94651605 7.1179862 19.94651605 5 18 C3.93145485 15.67707576 2.94593239 13.37175242 2 11 C1.70480469 10.29617188 1.40960938 9.59234375 1.10546875 8.8671875 C-1.11989158 3.35967473 -1.11989158 3.35967473 0 0 Z " fill="#229898" transform="translate(234,285)"/>
<path d="M0 0 C1.43294255 2.86588511 0.56870553 4.90371436 0 8 C0 8.99 0 9.98 0 11 C-0.165 11.969375 -0.33 12.93875 -0.5 13.9375 C-1.01175495 17.29233801 -1.03425877 20.54588207 -1 23.9375 C-0.96374626 28.74716282 -1.10731439 33.26876628 -2 38 C-2.99 38.495 -2.99 38.495 -4 39 C-3.8596274 34.54147746 -3.71170167 30.08323512 -3.5625 25.625 C-3.52318359 24.37332031 -3.48386719 23.12164062 -3.44335938 21.83203125 C-2.86693251 4.89394948 -2.86693251 4.89394948 -2 1 C-1.34 0.67 -0.68 0.34 0 0 Z " fill="#9F8759" transform="translate(33,350)"/>
<path d="M0 0 C0.99 0.33 1.98 0.66 3 1 C3.6875 3.0625 3.6875 3.0625 4 5 C4.928125 5.2165625 4.928125 5.2165625 5.875 5.4375 C8 6 8 6 10 7 C9.05125 7.268125 8.1025 7.53625 7.125 7.8125 C3.74732727 8.74986588 3.74732727 8.74986588 2 12 C0.33333333 12 -1.33333333 12 -3 12 C-3.6875 10.375 -3.6875 10.375 -4 8 C-2.625 4.875 -2.625 4.875 -1 2 C-0.67 1.34 -0.34 0.68 0 0 Z " fill="#22F3CD" transform="translate(277,64)"/>
<path d="M0 0 C0.66 0 1.32 0 2 0 C1.03647536 4.98186038 -1.8941016 8.10796134 -5 12 C-5.74507813 12.94359375 -6.49015625 13.8871875 -7.2578125 14.859375 C-14.00988 23.28274633 -14.00988 23.28274633 -18 26 C-17.6875 24.0625 -17.6875 24.0625 -17 22 C-16.01 21.67 -15.02 21.34 -14 21 C-13.28597008 19.69141928 -12.62606375 18.35287339 -12 17 C-10.92578101 15.56049243 -9.81900052 14.14493191 -8.6875 12.75 C-5.80644293 9.13067205 -3.33587822 5.44814174 -1.04296875 1.43359375 C-0.69878906 0.96050781 -0.35460937 0.48742187 0 0 Z " fill="#27E4C8" transform="translate(371,125)"/>
<path d="M0 0 C0.33 0.66 0.66 1.32 1 2 C1.99 2.33 2.98 2.66 4 3 C4 3.99 4 4.98 4 6 C4.99 5.67 5.98 5.34 7 5 C6 8 6 8 3.9375 9.1875 C3.298125 9.455625 2.65875 9.72375 2 10 C2 10.99 2 11.98 2 13 C-0.31 13 -2.62 13 -5 13 C-3.90339229 10.72243014 -2.75561956 8.62403009 -1.375 6.5 C0.32127917 3.89138574 0.32127917 3.89138574 0 0 Z " fill="#22F1CF" transform="translate(291,35)"/>
<path d="M0 0 C1.98 0 3.96 0 6 0 C6.2475 0.598125 6.495 1.19625 6.75 1.8125 C8.16444091 4.28777159 9.72860188 5.33430804 12 7 C12 7.66 12 8.32 12 9 C12.99 9 13.98 9 15 9 C15 9.66 15 10.32 15 11 C15.928125 11.2165625 15.928125 11.2165625 16.875 11.4375 C19 12 19 12 21 13 C21 13.99 21 14.98 21 16 C16.797793 14.57642625 13.89402199 12.52379647 10.5 9.6875 C9.5821875 8.92824219 8.664375 8.16898437 7.71875 7.38671875 C5.02866065 5.02516043 2.50090742 2.5598056 0 0 Z " fill="#15969C" transform="translate(277,351)"/>
<path d="M0 0 C0.99 0.33 1.98 0.66 3 1 C2.01 1.66 1.02 2.32 0 3 C1.32 3.66 2.64 4.32 4 5 C-2.27 5 -8.54 5 -15 5 C-15 4.01 -15 3.02 -15 2 C-14.08476562 1.93941406 -13.16953125 1.87882813 -12.2265625 1.81640625 C-10.44378906 1.69072266 -10.44378906 1.69072266 -8.625 1.5625 C-7.44164062 1.48128906 -6.25828125 1.40007812 -5.0390625 1.31640625 C-2.08481099 1.18915064 -2.08481099 1.18915064 0 0 Z " fill="#A6BB83" transform="translate(43,195)"/>
<path d="M0 0 C0.33 0 0.66 0 1 0 C1.61916858 30.12652044 1.61916858 30.12652044 -2 44 C-2.33 44 -2.66 44 -3 44 C-3 40.37 -3 36.74 -3 33 C-2.34 33 -1.68 33 -1 33 C-0.67 22.11 -0.34 11.22 0 0 Z " fill="#39AA95" transform="translate(402,20)"/>
<path d="M0 0 C4.21704138 1.56186718 6.2578799 4.55477218 9 8 C9.598125 8.5775 10.19625 9.155 10.8125 9.75 C12 11 12 11 12 13 C12.66 13 13.32 13 14 13 C15.6875 14.75 15.6875 14.75 17 17 C16.58203125 19.140625 16.58203125 19.140625 16 21 C14.07586356 18.81870696 12.1607761 16.63044885 10.25 14.4375 C9.44175781 13.52387695 9.44175781 13.52387695 8.6171875 12.59179688 C5.16157053 8.60940903 2.47105738 4.66022229 0 0 Z " fill="#16A6AC" transform="translate(252,322)"/>
<path d="M0 0 C0.33 0.66 0.66 1.32 1 2 C3.02463255 2.65213292 3.02463255 2.65213292 5 3 C5.33 2.34 5.66 1.68 6 1 C7.33827893 7.44807122 7.33827893 7.44807122 5.8125 9.9375 C4 11 4 11 0 11 C0 7.37 0 3.74 0 0 Z " fill="#39F4C8" transform="translate(230,36)"/>
<path d="M0 0 C1.98 0 3.96 0 6 0 C6 1.32 6 2.64 6 4 C5.05125 4.2475 4.1025 4.495 3.125 4.75 C-0.08693191 5.6857077 -0.08693191 5.6857077 -1.375 8.125 C-1.58125 8.74375 -1.7875 9.3625 -2 10 C-5 6.25 -5 6.25 -5 4 C-4.34 4 -3.68 4 -3 4 C-3 3.34 -3 2.68 -3 2 C-2.01 2 -1.02 2 0 2 C0 1.34 0 0.68 0 0 Z " fill="#32F3C9" transform="translate(247,66)"/>
<path d="M0 0 C5.78898419 -0.20674944 10.42932723 0.40837921 16 2 C16 2.66 16 3.32 16 4 C16.69867188 3.97679687 17.39734375 3.95359375 18.1171875 3.9296875 C19.02726562 3.91164063 19.93734375 3.89359375 20.875 3.875 C22.23238281 3.84019531 22.23238281 3.84019531 23.6171875 3.8046875 C26 4 26 4 28 6 C21.90901915 6.20907257 16.54965633 5.50123813 10.625 4.125 C9.81933594 3.95097656 9.01367188 3.77695312 8.18359375 3.59765625 C2.25760958 2.25760958 2.25760958 2.25760958 0 0 Z " fill="#15ABB5" transform="translate(350,389)"/>
<path d="M0 0 C0 0.99 0 1.98 0 3 C1.43750191 4.68798827 1.43750191 4.68798827 3 6 C1 8 1 8 -0.9453125 8.1953125 C-2.96354167 8.13020833 -4.98177083 8.06510417 -7 8 C-7 6.35 -7 4.7 -7 3 C-4.69 2.01 -2.38 1.02 0 0 Z " fill="#82D193" transform="translate(189,158)"/>
<path d="M0 0 C1.32 0.66 2.64 1.32 4 2 C4 5.3 4 8.6 4 12 C3.236875 11.38125 2.47375 10.7625 1.6875 10.125 C-0.99625809 7.94402948 -0.99625809 7.94402948 -4 6 C-4 5.34 -4 4.68 -4 4 C-3.34 4 -2.68 4 -2 4 C-2 3.01 -2 2.02 -2 1 C-1.34 0.67 -0.68 0.34 0 0 Z " fill="#3ECD9E" transform="translate(229,200)"/>
<path d="M0 0 C1.18851563 0.00902344 2.37703125 0.01804687 3.6015625 0.02734375 C4.51679687 0.03894531 5.43203125 0.05054688 6.375 0.0625 C6.705 1.0525 7.035 2.0425 7.375 3.0625 C1.105 3.0625 -5.165 3.0625 -11.625 3.0625 C-7.27638087 0.16342058 -5.22916113 -0.05126629 0 0 Z " fill="#7A957E" transform="translate(107.625,391.9375)"/>
<path d="M0 0 C0.33 0 0.66 0 1 0 C1.37048917 6.54530874 1.37048917 6.54530874 -0.375 8.6875 C-1.179375 9.3371875 -1.179375 9.3371875 -2 10 C-2.350625 10.70125 -2.70125 11.4025 -3.0625 12.125 C-4 14 -4 14 -6 15 C-7.13350534 17.01669827 -7.13350534 17.01669827 -8 19 C-9 17 -9 17 -8.36328125 14.72265625 C-8.01652344 13.84480469 -7.66976562 12.96695312 -7.3125 12.0625 C-6.97863281 11.18722656 -6.64476562 10.31195313 -6.30078125 9.41015625 C-4.866512 6.75266638 -3.44741652 5.69861763 -1 4 C-0.20376178 1.90584196 -0.20376178 1.90584196 0 0 Z " fill="#807B65" transform="translate(45,308)"/>
<path d="M0 0 C0.66 0.33 1.32 0.66 2 1 C1.37417301 6.42383389 -2.86154489 10.03863791 -6.8125 13.375 C-7.534375 13.91125 -8.25625 14.4475 -9 15 C-7.76372623 8.40653991 -4.61935701 4.75522045 0 0 Z " fill="#728173" transform="translate(68,271)"/>
<path d="M0 0 C-12 8 -12 8 -14.1875 7.625 C-14.785625 7.41875 -15.38375 7.2125 -16 7 C-11.87785219 2.2337666 -6.51863027 -2.17287676 0 0 Z " fill="#5E8378" transform="translate(118,235)"/>
<path d="M0 0 C1.32 0 2.64 0 4 0 C3.5359375 1.1446875 3.5359375 1.1446875 3.0625 2.3125 C1.28756193 6.80204922 0.90885114 10.1691105 1 15 C0.01 15.33 -0.98 15.66 -2 16 C-2.05449838 14.27119018 -2.09301688 12.54187288 -2.125 10.8125 C-2.14820313 9.84957031 -2.17140625 8.88664062 -2.1953125 7.89453125 C-1.9913544 4.87187222 -1.26874632 2.73230015 0 0 Z " fill="#3DF1C3" transform="translate(227,29)"/>
<path d="M0 0 C0.66 0 1.32 0 2 0 C2.8125 1.6875 2.8125 1.6875 3 4 C0.53973429 6.87030999 -1.85489214 8.90326143 -5 11 C-5.66 11.99 -6.32 12.98 -7 14 C-6.45276317 10.62537285 -5.9451 8.91765 -4 6 C-4 4.68 -4 3.36 -4 2 C-2.68 2 -1.36 2 0 2 C0 1.34 0 0.68 0 0 Z M-3 4 C-3 4.66 -3 5.32 -3 6 C-2.34 5.67 -1.68 5.34 -1 5 C-1.66 4.67 -2.32 4.34 -3 4 Z " fill="#2DF4CA" transform="translate(256,76)"/>
<path d="M0 0 C0.66 0.33 1.32 0.66 2 1 C-2.32893185 6.18419194 -6.76564995 10.72706118 -12 15 C-12 12 -12 12 -9.375 9.08203125 C-8.25750594 7.98449244 -7.13214357 6.89492105 -6 5.8125 C-5.42765625 5.25369141 -4.8553125 4.69488281 -4.265625 4.11914062 C-2.85037212 2.73926907 -1.42602845 1.36873266 0 0 Z " fill="#596F62" transform="translate(82,256)"/>
<path d="M0 0 C0.66 0.33 1.32 0.66 2 1 C2 1.66 2 2.32 2 3 C2.66 3 3.32 3 4 3 C4 3.66 4 4.32 4 5 C4.99 4.67 5.98 4.34 7 4 C7.33 4.99 7.66 5.98 8 7 C1.81839396 6.46246904 -3.326858 4.45417612 -9 2 C-5.61682513 1.02408417 -3.4342662 1.14143345 0 2 C0 1.34 0 0.68 0 0 Z " fill="#10A5A6" transform="translate(333,380)"/>
<path d="M0 0 C0.66 0 1.32 0 2 0 C3.19725883 2.28703308 4.38297018 4.57884862 5.5625 6.875 C5.90474609 7.52597656 6.24699219 8.17695312 6.59960938 8.84765625 C7.46082891 10.53529857 8.23686703 12.26579593 9 14 C8.67 14.66 8.34 15.32 8 16 C4.91261346 13.53009077 3.71616245 11.59094746 2.875 7.8125 C2.58625 6.554375 2.2975 5.29625 2 4 C1.34 3.67 0.68 3.34 0 3 C0 2.01 0 1.02 0 0 Z " fill="#8FC07B" transform="translate(188,110)"/>
<path d="M0 0 C5.75 1.875 5.75 1.875 8 3 C8 3.66 8 4.32 8 5 C9.11375 5.144375 10.2275 5.28875 11.375 5.4375 C15 6 15 6 17 7 C17 7.99 17 8.98 17 10 C12.56473186 8.69047721 9.00013681 6.95266332 5.125 4.4375 C4.15820312 3.81746094 3.19140625 3.19742187 2.1953125 2.55859375 C1.47085937 2.04425781 0.74640625 1.52992188 0 1 C0 0.67 0 0.34 0 0 Z " fill="#13989E" transform="translate(300,368)"/>
<path d="M0 0 C0.99 0.33 1.98 0.66 3 1 C3 1.99 3 2.98 3 4 C3.99 4.33 4.98 4.66 6 5 C5.67 5.99 5.34 6.98 5 8 C-0.75 7.25 -0.75 7.25 -3 5 C-2.01 3.35 -1.02 1.7 0 0 Z " fill="#B5E484" transform="translate(99,78)"/>
<path d="M0 0 C6.09781001 -0.22084624 11.21642935 -0.01167675 17 2 C17 2.66 17 3.32 17 4 C11.147205 3.48517081 5.6702363 2.54642808 0 1 C0 0.67 0 0.34 0 0 Z " fill="#D8E482" transform="translate(58,22)"/>
<path d="M0 0 C5.82271337 -0.59720137 9.9209404 1.471757 15 4 C15 4.66 15 5.32 15 6 C13.06213915 5.52229477 11.12472326 5.04278429 9.1875 4.5625 C8.10855469 4.29566406 7.02960938 4.02882813 5.91796875 3.75390625 C3.9259157 3.23922588 1.95188476 2.65062825 0 2 C0 1.34 0 0.68 0 0 Z " fill="#D4E67F" transform="translate(81,26)"/>
<path d="M0 0 C2.375 0.3125 2.375 0.3125 5 1 C5.66 1.99 6.32 2.98 7 4 C5.36587557 5.70840281 4.13093906 6.93453047 2 8 C2 7.34 2 6.68 2 6 C1.01 5.67 0.02 5.34 -1 5 C-0.67 3.35 -0.34 1.7 0 0 Z " fill="#5CA186" transform="translate(166,232)"/>
<path d="M0 0 C0.33 0 0.66 0 1 0 C1.20674944 5.78898419 0.59162079 10.42932723 -1 16 C-1.66 16 -2.32 16 -3 16 C-3.33 17.32 -3.66 18.64 -4 20 C-5.58847638 16.82304723 -4.12563398 14.44434444 -3.125 11.125 C-1.45420557 5.59193248 -1.45420557 5.59193248 0 0 Z " fill="#0A4035" transform="translate(398,68)"/>
<path d="M0 0 C2.97 0 5.94 0 9 0 C8.67 0.66 8.34 1.32 8 2 C7.34 1.67 6.68 1.34 6 1 C6 1.66 6 2.32 6 3 C5.34 3 4.68 3 4 3 C3.67 4.32 3.34 5.64 3 7 C2.01 6.67 1.02 6.34 0 6 C0 4.02 0 2.04 0 0 Z " fill="#2BF3CC" transform="translate(298,23)"/>
<path d="M0 0 C1.32 0.66 2.64 1.32 4 2 C3.814375 2.78375 3.62875 3.5675 3.4375 4.375 C2.74037734 6.97089775 2.74037734 6.97089775 4 9 C3.34 9 2.68 9 2 9 C1.34 10.32 0.68 11.64 0 13 C-0.66 12.67 -1.32 12.34 -2 12 C-1.67 11.319375 -1.34 10.63875 -1 9.9375 C0.17307315 6.49159762 0.14180493 3.61602578 0 0 Z " fill="#AEC475" transform="translate(61,156)"/>
<path d="M0 0 C0.66 0 1.32 0 2 0 C1.57709963 1.96153791 1.13618382 3.91919875 0.6875 5.875 C0.44386719 6.96554687 0.20023438 8.05609375 -0.05078125 9.1796875 C-1 12 -1 12 -4 14 C-3.38029501 4.19156581 -3.38029501 4.19156581 0 0 Z " fill="#978C74" transform="translate(39,322)"/>
<path d="M0 0 C4.92576004 2.71419431 9.55051653 5.54938017 14 9 C14 9.66 14 10.32 14 11 C13.01 11 12.02 11 11 11 C9.66666667 9.66666667 8.33333333 8.33333333 7 7 C4.71892339 5.54483044 2.38529553 4.2843899 0 3 C0 2.01 0 1.02 0 0 Z " fill="#C5DE80" transform="translate(130,46)"/>
<path d="M0 0 C0 0.66 0 1.32 0 2 C0.66 2.33 1.32 2.66 2 3 C0.68 3.99 -0.64 4.98 -2 6 C-3.32 5.34 -4.64 4.68 -6 4 C-6 3.01 -6 2.02 -6 1 C-4 0 -4 0 0 0 Z " fill="#B4E27F" transform="translate(94,87)"/>
<path d="M0 0 C0.66 0 1.32 0 2 0 C2 2.64 2 5.28 2 8 C2.66 8 3.32 8 4 8 C4.33 10.64 4.66 13.28 5 16 C2.32725101 13.70802621 1.49032022 11.99794779 0.8125 8.5625 C0.65394531 7.80066406 0.49539062 7.03882813 0.33203125 6.25390625 C0 4 0 4 0 0 Z " fill="#229196" transform="translate(227,266)"/>
<path d="M0 0 C0.66 0.99 1.32 1.98 2 3 C1.25 4.9375 1.25 4.9375 0 7 C-2.125 7.75 -2.125 7.75 -4 8 C-4 5.69 -4 3.38 -4 1 C-2.68 0.67 -1.36 0.34 0 0 Z " fill="#86CF85" transform="translate(124,178)"/>
<path d="M0 0 C0.66 0 1.32 0 2 0 C0.48446596 3.47775179 -1.5773456 5.9557984 -4.125 8.75 C-5.21167969 9.94882813 -5.21167969 9.94882813 -6.3203125 11.171875 C-6.87460937 11.77515625 -7.42890625 12.3784375 -8 13 C-8.33 12.01 -8.66 11.02 -9 10 C-8.38125 9.7525 -7.7625 9.505 -7.125 9.25 C-4.57860966 7.75212333 -4.17316583 6.65917588 -3 4 C-1.5 1.75 -1.5 1.75 0 0 Z " fill="#24D2BA" transform="translate(362,138)"/>
<path d="M0 0 C4.84659077 0.59104765 8.60748167 1.97944157 13 4 C13 4.66 13 5.32 13 6 C8.62297367 4.77443263 4.30322683 3.46939453 0 2 C0 1.34 0 0.68 0 0 Z " fill="#D2E57E" transform="translate(97,31)"/>
<path d="M0 0 C0.67578125 1.734375 0.67578125 1.734375 1 4 C-0.14453125 6.140625 -0.14453125 6.140625 -1.8125 8.25 C-2.35519531 8.95640625 -2.89789063 9.6628125 -3.45703125 10.390625 C-3.96621094 10.92171875 -4.47539063 11.4528125 -5 12 C-5.66 12 -6.32 12 -7 12 C-5.44298069 7.32894208 -2.91552627 3.91294315 0 0 Z " fill="#6F7360" transform="translate(59,282)"/>
<path d="M0 0 C0.99 0.33 1.98 0.66 3 1 C1.68 3.64 0.36 6.28 -1 9 C-1.99 9 -2.98 9 -4 9 C-4.25 6.75 -4.25 6.75 -4 4 C-2 1.6875 -2 1.6875 0 0 Z " fill="#27F4CF" transform="translate(265,78)"/>
<path d="M0 0 C1.65 0.33 3.3 0.66 5 1 C4.34 3.31 3.68 5.62 3 8 C2.67 7.01 2.34 6.02 2 5 C1.01 5.33 0.02 5.66 -1 6 C-0.67 4.02 -0.34 2.04 0 0 Z " fill="#A7E288" transform="translate(149,96)"/>
<path d="M0 0 C0 3 0 3 -2.1875 5.625 C-5.00654002 8.00552268 -6.39755548 8.69121904 -10 9 C-6.83047153 5.73991357 -3.60062011 2.77762123 0 0 Z " fill="#032A25" transform="translate(347,157)"/>
<path d="M0 0 C1.65 0 3.3 0 5 0 C4.8125 1.875 4.8125 1.875 4 4 C1.10888212 5.52164099 -0.71823412 6 -4 6 C-4 5.34 -4 4.68 -4 4 C-2.35 3.67 -0.7 3.34 1 3 C0.67 2.01 0.34 1.02 0 0 Z " fill="#2FF3D5" transform="translate(302,31)"/>
<path d="M0 0 C0.66 0.33 1.32 0.66 2 1 C1.3125 3.4375 1.3125 3.4375 0 6 C-2.625 6.8125 -2.625 6.8125 -5 7 C-3.47793991 4.37098712 -2.15634036 2.15634036 0 0 Z " fill="#18F0CE" transform="translate(302,72)"/>
<path d="M0 0 C1.32 0.66 2.64 1.32 4 2 C1.53846154 5.81538462 1.53846154 5.81538462 -1.1875 6.75 C-1.785625 6.8325 -2.38375 6.915 -3 7 C-3.33 6.01 -3.66 5.02 -4 4 C-2.68 3.67 -1.36 3.34 0 3 C0 2.01 0 1.02 0 0 Z " fill="#28F3CB" transform="translate(270,63)"/>
<path d="M0 0 C0.66 0.33 1.32 0.66 2 1 C1.67 1.66 1.34 2.32 1 3 C1.66 3 2.32 3 3 3 C3 3.99 3 4.98 3 6 C0.69 6 -1.62 6 -4 6 C-2.84826645 3.53199953 -1.95216435 1.95216435 0 0 Z " fill="#2FF3D3" transform="translate(290,42)"/>
<path d="M0 0 C4.29951803 1.59241408 6.39671947 4.35540725 9 8 C8.67 8.99 8.34 9.98 8 11 C7.03644756 9.92130607 6.07938583 8.83681257 5.125 7.75 C4.59132813 7.14671875 4.05765625 6.5434375 3.5078125 5.921875 C2.0202513 4.02581254 0.99677564 2.18709995 0 0 Z " fill="#1C9898" transform="translate(252,322)"/>
<path d="M0 0 C0.66 0.33 1.32 0.66 2 1 C0.68 1.33 -0.64 1.66 -2 2 C-2 2.66 -2 3.32 -2 4 C-4.30368736 5.06652192 -6.64018187 6.06421005 -9 7 C-9.66 6.67 -10.32 6.34 -11 6 C-9.21385682 4.96953278 -7.42089982 3.95086764 -5.625 2.9375 C-4.62726563 2.36902344 -3.62953125 1.80054688 -2.6015625 1.21484375 C-1.74304688 0.81394531 -0.88453125 0.41304687 0 0 Z " fill="#3E6B5E" transform="translate(124,228)"/>
<path d="M0 0 C0.99 0 1.98 0 3 0 C2.34 2.31 1.68 4.62 1 7 C1.66 7.33 2.32 7.66 3 8 C2.01 8.33 1.02 8.66 0 9 C-0.33 9.99 -0.66 10.98 -1 12 C-0.67 8.04 -0.34 4.08 0 0 Z " fill="#34C79F" transform="translate(199,200)"/>
<path d="M0 0 C0.33 0 0.66 0 1 0 C1.33 4.29 1.66 8.58 2 13 C1.34 13 0.68 13 0 13 C0 12.01 0 11.02 0 10 C-0.99 10 -1.98 10 -3 10 C-2.690625 9.46375 -2.38125 8.9275 -2.0625 8.375 C-0.82172561 5.6015043 -0.4090325 2.99957163 0 0 Z " fill="#6EC28E" transform="translate(207,176)"/>
<path d="M0 0 C0.99 0.33 1.98 0.66 3 1 C3.33 1.99 3.66 2.98 4 4 C-0.75 5.125 -0.75 5.125 -3 4 C-2.67 3.01 -2.34 2.02 -2 1 C-1.34 0.67 -0.68 0.34 0 0 Z " fill="#A48264" transform="translate(75,360)"/>
<path d="M0 0 C3.35595828 0.59927826 5.37801226 1.84622436 8 4 C7.67 5.32 7.34 6.64 7 8 C5.83035398 6.8572081 4.66435444 5.71068285 3.5 4.5625 C2.8503125 3.92441406 2.200625 3.28632813 1.53125 2.62890625 C0 1 0 1 0 0 Z " fill="#188E9D" transform="translate(269,343)"/>
<path d="M0 0 C0.66 0.33 1.32 0.66 2 1 C1.60196439 3.88575819 1.20990931 4.82189513 -1.0625 6.75 C-1.701875 7.1625 -2.34125 7.575 -3 8 C-2.25 2.25 -2.25 2.25 0 0 Z " fill="#738B7E" transform="translate(68,271)"/>
<path d="M0 0 C1.98 0 3.96 0 6 0 C6 0.66 6 1.32 6 2 C7.32 2.33 8.64 2.66 10 3 C6.7 3 3.4 3 0 3 C0 2.01 0 1.02 0 0 Z " fill="#9AB681" transform="translate(28,197)"/>
<path d="M0 0 C0.99 0.66 1.98 1.32 3 2 C2.67 3.32 2.34 4.64 2 6 C0.68 5.67 -0.64 5.34 -2 5 C-1.125 1.125 -1.125 1.125 0 0 Z " fill="#BBB977" transform="translate(62,172)"/>
<path d="M0 0 C0.66 0 1.32 0 2 0 C2.93065133 2.60582371 3.14917407 3.64198224 2.0625 6.25 C1.5365625 7.11625 1.5365625 7.11625 1 8 C-2 4.25 -2 4.25 -2 2 C-1.34 2 -0.68 2 0 2 C0 1.34 0 0.68 0 0 Z " fill="#26F0C5" transform="translate(244,68)"/>
<path d="M0 0 C0 3 0 3 -1.3125 4.38671875 C-2.875 5.59114583 -4.4375 6.79557292 -6 8 C-6.66 7.67 -7.32 7.34 -8 7 C-6.41641358 3.83282717 -5.54736301 2.26731682 -2.3125 0.6875 C-1.549375 0.460625 -0.78625 0.23375 0 0 Z " fill="#28F3D2" transform="translate(303,43)"/>
<path d="M0 0 C1.98 0 3.96 0 6 0 C5.34 0.66 4.68 1.32 4 2 C3.3574765 4.06874034 3.3574765 4.06874034 3 6 C2.01 5.67 1.02 5.34 0 5 C0.33 4.67 0.66 4.34 1 4 C0.34 3.67 -0.32 3.34 -1 3 C-0.67 2.01 -0.34 1.02 0 0 Z " fill="#5B9C84" transform="translate(138,233)"/>
<path d="M0 0 C0.5625 1.9375 0.5625 1.9375 1 4 C0 5 0 5 -3.0625 5.0625 C-4.5165625 5.0315625 -4.5165625 5.0315625 -6 5 C-3.375 1.125 -3.375 1.125 0 0 Z " fill="#21F1C9" transform="translate(275,92)"/>
<path d="M0 0 C0.99 0 1.98 0 3 0 C2.34 1.98 1.68 3.96 1 6 C-0.32 5.67 -1.64 5.34 -3 5 C-1.6875 2.5 -1.6875 2.5 0 0 Z " fill="#9BCC8D" transform="translate(131,155)"/>
<path d="M0 0 C0.99 0.495 0.99 0.495 2 1 C1.01 1.495 1.01 1.495 0 2 C0 1.34 0 0.68 0 0 Z M-4 2 C-2.68 2.33 -1.36 2.66 0 3 C0 3.66 0 4.32 0 5 C0.66 5.33 1.32 5.66 2 6 C2 6.66 2 7.32 2 8 C0.125 7.8125 0.125 7.8125 -2 7 C-3.25 4.4375 -3.25 4.4375 -4 2 Z " fill="#95E290" transform="translate(155,110)"/>
<path d="M0 0 C4.11574371 0.4748935 7.36383344 1.0210244 11 3 C9.54257537 3.08096803 8.08387193 3.13917774 6.625 3.1875 C5.81289063 3.22230469 5.00078125 3.25710938 4.1640625 3.29296875 C3.44992187 3.19628906 2.73578125 3.09960938 2 3 C1.34 2.01 0.68 1.02 0 0 Z " fill="#05474E" transform="translate(354,391)"/>
<path d="M0 0 C0.99 0.33 1.98 0.66 3 1 C4.1875 3.5625 4.1875 3.5625 5 6 C4.01 6 3.02 6 2 6 C1.34 5.34 0.68 4.68 0 4 C0 2.68 0 1.36 0 0 Z " fill="#A7DF93" transform="translate(179,95)"/>
<path d="M0 0 C1.27351308 2.54702616 0.80191925 3.4282945 0.0625 6.125 C-0.13214844 6.84945312 -0.32679688 7.57390625 -0.52734375 8.3203125 C-0.68332031 8.87460938 -0.83929688 9.42890625 -1 10 C-1.99 10 -2.98 10 -4 10 C-3.52449439 8.51965236 -3.04448784 7.04074979 -2.5625 5.5625 C-2.29566406 4.73878906 -2.02882813 3.91507812 -1.75390625 3.06640625 C-1 1 -1 1 0 0 Z " fill="#2AEFD5" transform="translate(390,89)"/>
<path d="M0 0 C1.98 0 3.96 0 6 0 C5.67 0.99 5.34 1.98 5 3 C3.02 3 1.04 3 -1 3 C-0.67 2.01 -0.34 1.02 0 0 Z " fill="#6C9A85" transform="translate(167,268)"/>
<path d="M0 0 C1.32 0.66 2.64 1.32 4 2 C0.375 5 0.375 5 -3 5 C-1.125 1.125 -1.125 1.125 0 0 Z " fill="#94DA8E" transform="translate(140,129)"/>
<path d="M0 0 C1.65 0 3.3 0 5 0 C5 1.32 5 2.64 5 4 C3.0625 3.6875 3.0625 3.6875 1 3 C0.67 2.01 0.34 1.02 0 0 Z " fill="#0EF2C1" transform="translate(235,112)"/>
<path d="M0 0 C0.66 0 1.32 0 2 0 C1.40138258 2.35171131 0.73075648 4.6859378 0 7 C-0.99 7.495 -0.99 7.495 -2 8 C-1.125 1.125 -1.125 1.125 0 0 Z " fill="#34E2CA" transform="translate(386,99)"/>
<path d="M0 0 C1.65 0 3.3 0 5 0 C4.01 0.495 4.01 0.495 3 1 C3 1.66 3 2.32 3 3 C1.68 3.33 0.36 3.66 -1 4 C-0.67 2.68 -0.34 1.36 0 0 Z " fill="#39F2C5" transform="translate(252,33)"/>
<path d="M0 0 C0.66 0 1.32 0 2 0 C2 0.66 2 1.32 2 2 C2.66 2 3.32 2 4 2 C3.67 3.32 3.34 4.64 3 6 C2.01 5.67 1.02 5.34 0 5 C0 3.35 0 1.7 0 0 Z " fill="#1AF2C8" transform="translate(298,24)"/>
</svg>
