<?xml version="1.0" encoding="UTF-8"?>
<svg version="1.1" xmlns="http://www.w3.org/2000/svg" width="190" height="182">
<path d="M0 0 C62.7 0 125.4 0 190 0 C190 60.06 190 120.12 190 182 C127.3 182 64.6 182 0 182 C0 121.94 0 61.88 0 0 Z " fill="#000000" transform="translate(0,0)"/>
<path d="M0 0 C7.47026967 5.21181605 10.2674023 13.00088137 13.76171875 21.08789062 C17.53823119 29.43817925 22.1042238 35.15427211 30.5625 39.0625 C31.58859375 39.5471875 32.6146875 40.031875 33.671875 40.53125 C37.07431918 42.04736502 40.48795436 43.5312262 43.9453125 44.91796875 C45.6875 45.875 45.6875 45.875 47.6875 48.875 C49.2641286 56.8837152 46.84466617 62.87741213 42.8125 69.73046875 C33.7563991 83.13150041 22.67581366 92.712471 6.828125 96.3359375 C-6.72894466 98.66289722 -20.02981821 95.77287725 -31.3125 87.875 C-39.28319296 81.2895879 -44.42483048 74.42227005 -48.3125 64.875 C-48.65023437 64.15054688 -48.98796875 63.42609375 -49.3359375 62.6796875 C-53.41436816 52.83907041 -52.40744139 40.43455019 -48.63671875 30.68359375 C-42.36420879 17.37995168 -31.89325158 5.25192829 -17.8125 -0.0625 C-11.78237825 -1.78081788 -5.95640339 -2.02292945 0 0 Z " fill="#E8C95A" transform="translate(95.3125,48.125)"/>
<path d="M0 0 C3.43764805 0.43686777 4.8030134 1.59574237 7 4.1875 C13.19513913 10.67511351 22.06175841 13.75554046 30.2578125 17.04296875 C32 18 32 18 34 21 C35.5766286 29.0087152 33.15716617 35.00241213 29.125 41.85546875 C20.0625692 55.26586727 8.9928286 64.81305084 -6.8515625 68.46484375 C-15.45594966 69.92737606 -23.58067662 69.08620402 -32 67 C-30.02 66.505 -30.02 66.505 -28 66 C-28.57344937 63.13275314 -28.8614515 62.1385485 -31 60 C-27.04 60 -23.08 60 -19 60 C-19.12375 58.55625 -19.2475 57.1125 -19.375 55.625 C-19.44460937 54.81289062 -19.51421875 54.00078125 -19.5859375 53.1640625 C-19.82892588 50.79665809 -19.82892588 50.79665809 -22 49 C-22.99 49 -23.98 49 -25 49 C-25.36263859 43.1977825 -24.25684543 39.36000789 -22 34 C-21.34 34 -20.68 34 -20 34 C-20.11859375 33.39671875 -20.2371875 32.7934375 -20.359375 32.171875 C-20.75207167 29.73715564 -21.04284125 27.46765607 -21 25 C-19.125 22.75 -19.125 22.75 -17 21 C-16.64386903 19.33805547 -16.30791692 17.671549 -16 16 C-15.01 15.34 -14.02 14.68 -13 14 C-12.67 13.34 -12.34 12.68 -12 12 C-11.34 12 -10.68 12 -10 12 C-10 11.34 -10 10.68 -10 10 C-9.01 10 -8.02 10 -7 10 C-6.9071875 9.1646875 -6.9071875 9.1646875 -6.8125 8.3125 C-5.66383862 5.043233 -3.51178856 3.32340442 -1 1 C-0.67 0.67 -0.34 0.34 0 0 Z " fill="#1AF0AC" transform="translate(109,76)"/>
<path d="M0 0 C5.91183009 2.00779135 9.39340566 5.95304329 12.24584961 11.36279297 C13.48232541 14.01519681 14.65949691 16.68529895 15.8125 19.375 C16.21919922 20.30183594 16.62589844 21.22867188 17.04492188 22.18359375 C18.03882744 24.45203704 19.0235275 26.72401148 20 29 C19.22140625 29.45375 18.4428125 29.9075 17.640625 30.375 C13.82417106 32.72358704 11.43120135 34.70639594 10 39 C9.01 39 8.02 39 7 39 C7 39.66 7 40.32 7 41 C6.34 41.66 5.68 42.32 5 43 C4.67 43.66 4.34 44.32 4 45 C3.01 45 2.02 45 1 45 C1 45.66 1 46.32 1 47 C0.01 47 -0.98 47 -2 47 C-2.66666667 44.33333333 -3.33333333 41.66666667 -4 39 C-4.226875 38.29875 -4.45375 37.5975 -4.6875 36.875 C-4.790625 36.25625 -4.89375 35.6375 -5 35 C-3.0625 32.75 -3.0625 32.75 -1 31 C-1.66 30.67 -2.32 30.34 -3 30 C-3.66796875 27.0859375 -3.66796875 27.0859375 -4.1875 23.375 C-4.45626953 21.56128906 -4.45626953 21.56128906 -4.73046875 19.7109375 C-5.00426749 15.94124469 -4.59812561 12.71819877 -4 9 C-4.36887653 5.69285416 -4.36887653 5.69285416 -5 3 C-6.65 3.33 -8.3 3.66 -10 4 C-10.66 3.01 -11.32 2.02 -12 1 C-8.30265586 -0.84867207 -4.0436816 -0.33645425 0 0 Z " fill="#F47CCF" transform="translate(92,47)"/>
<path d="M0 0 C2.0894988 3.1342482 3.56445886 6.26109446 5.125 9.6875 C5.66382812 10.86699219 6.20265625 12.04648438 6.7578125 13.26171875 C7.16773437 14.16535156 7.57765625 15.06898437 8 16 C7.22140625 16.45375 6.4428125 16.9075 5.640625 17.375 C1.82417106 19.72358704 -0.56879865 21.70639594 -2 26 C-2.99 26 -3.98 26 -5 26 C-5 26.66 -5 27.32 -5 28 C-5.66 28.66 -6.32 29.32 -7 30 C-7.33 30.66 -7.66 31.32 -8 32 C-8.99 32 -9.98 32 -11 32 C-11 32.66 -11 33.32 -11 34 C-11.99 34 -12.98 34 -14 34 C-14.66666667 31.33333333 -15.33333333 28.66666667 -16 26 C-16.22558594 25.30390625 -16.45117188 24.6078125 -16.68359375 23.890625 C-16.78800781 23.26671875 -16.89242187 22.6428125 -17 22 C-15.71937515 20.2925002 -14.38232443 18.62626404 -13 17 C-12.22166466 14.81785432 -12.22166466 14.81785432 -12 13 C-10.948125 12.896875 -9.89625 12.79375 -8.8125 12.6875 C-5.78137655 11.88043258 -5.09248461 11.15131765 -3.421875 8.41796875 C-2.18077759 5.63976507 -1.03780926 2.85995362 0 0 Z " fill="#BAADB5" transform="translate(104,60)"/>
<path d="M0 0 C3.56401277 0.43223134 5.20614973 1.8747974 7.625 4.4375 C8.21539062 5.05496094 8.80578125 5.67242187 9.4140625 6.30859375 C9.93742187 6.86675781 10.46078125 7.42492187 11 8 C11.66 8.66 12.32 9.32 13 10 C6.375 11 6.375 11 3 11 C1.35282809 12.42686471 1.35282809 12.42686471 -0.125 14.3125 C-0.64320312 14.92738281 -1.16140625 15.54226562 -1.6953125 16.17578125 C-4.60478157 20.24381135 -3.68429508 23.29547134 -3 28 C-3.33 28.66 -3.66 29.32 -4 30 C-4.99 30 -5.98 30 -7 30 C-7.33 30.99 -7.66 31.98 -8 33 C-8 32.01 -8 31.02 -8 30 C-8.66 29.67 -9.32 29.34 -10 29 C-10.625 26.9375 -10.625 26.9375 -11 25 C-12.32 24.67 -13.64 24.34 -15 24 C-15.33 21.36 -15.66 18.72 -16 16 C-15.01 15.34 -14.02 14.68 -13 14 C-12.67 13.34 -12.34 12.68 -12 12 C-11.34 12 -10.68 12 -10 12 C-10 11.34 -10 10.68 -10 10 C-9.01 10 -8.02 10 -7 10 C-6.938125 9.443125 -6.87625 8.88625 -6.8125 8.3125 C-5.66383862 5.043233 -3.51178856 3.32340442 -1 1 C-0.67 0.67 -0.34 0.34 0 0 Z " fill="#45E7A0" transform="translate(109,76)"/>
<path d="M0 0 C0.33 0 0.66 0 1 0 C2.125 5.75 2.125 5.75 1 8 C0.34 8 -0.32 8 -1 8 C-1.33 11.63 -1.66 15.26 -2 19 C-1.34 19 -0.68 19 0 19 C-0.33 20.98 -0.66 22.96 -1 25 C-0.34 25 0.32 25 1 25 C1.66 25.99 2.32 26.98 3 28 C3.66 27.34 4.32 26.68 5 26 C5.33 26.66 5.66 27.32 6 28 C5.67 28.99 5.34 29.98 5 31 C5.99 31.33 6.98 31.66 8 32 C7.773125 32.7425 7.54625 33.485 7.3125 34.25 C6.69741574 37.04797157 6.69741574 37.04797157 8.4375 39.1875 C8.953125 39.785625 9.46875 40.38375 10 41 C10 41.66 10 42.32 10 43 C11.98 43 13.96 43 16 43 C16.66 44.98 17.32 46.96 18 49 C18.66 49 19.32 49 20 49 C20 49.66 20 50.32 20 51 C22.64 51.33 25.28 51.66 28 52 C28.33 53.32 28.66 54.64 29 56 C30.32 56.33 31.64 56.66 33 57 C33 58.32 33 59.64 33 61 C24.81712679 61.44199461 19.2349772 57.66435125 13.0546875 52.57421875 C4.52123363 44.54068112 -2.33665194 34.2358538 -3.30078125 22.265625 C-3.31929693 20.9272057 -3.32275677 19.58850807 -3.3125 18.25 C-3.31121094 17.55132812 -3.30992188 16.85265625 -3.30859375 16.1328125 C-3.20297354 10.40819719 -2.15173718 5.3281111 0 0 Z " fill="#E6EE23" transform="translate(48,81)"/>
<path d="M0 0 C0.33 0.99 0.66 1.98 1 3 C1.99 3.33 2.98 3.66 4 4 C7.10764662 8.10653304 7.10764662 8.10653304 6.765625 10.9453125 C5.87510489 13.33517769 4.73245638 14.70094231 3 16.5625 C0.88166863 18.84887208 0.01082314 19.96753059 -1 23 C-1.66 23.33 -2.32 23.66 -3 24 C-3.72693904 25.97888961 -4.39816251 27.97954558 -5 30 C-5.66 29.34 -6.32 28.68 -7 28 C-7.99 28 -8.98 28 -10 28 C-10.36263859 22.1977825 -9.25684543 18.36000789 -7 13 C-6.34 13 -5.68 13 -5 13 C-5.17789063 12.09507813 -5.17789063 12.09507813 -5.359375 11.171875 C-6.42028986 4.5942029 -6.42028986 4.5942029 -4.1875 1.4375 C-2 0 -2 0 0 0 Z " fill="#7BFC5B" transform="translate(94,97)"/>
<path d="M0 0 C0.66 0 1.32 0 2 0 C2 0.66 2 1.32 2 2 C2.99 2 3.98 2 5 2 C4.67 3.32 4.34 4.64 4 6 C3.34 6 2.68 6 2 6 C1.01751476 10.0527516 0.91840426 13.83861737 1 18 C0.34 18 -0.32 18 -1 18 C-1.18175781 18.62648438 -1.36351563 19.25296875 -1.55078125 19.8984375 C-1.80214844 20.71570313 -2.05351563 21.53296875 -2.3125 22.375 C-2.67794922 23.59316406 -2.67794922 23.59316406 -3.05078125 24.8359375 C-4 27 -4 27 -7 29 C-6.835 28.236875 -6.67 27.47375 -6.5 26.6875 C-5.69771364 22.50863159 -5.69771364 22.50863159 -7.5 18.8125 C-7.995 18.214375 -8.49 17.61625 -9 17 C-9.99 17.33 -10.98 17.66 -12 18 C-11.45773019 14.20411134 -9.79872437 12.52788007 -7 10 C-7.99 10.33 -8.98 10.66 -10 11 C-9.34 8.69 -8.68 6.38 -8 4 C-5.03 4.495 -5.03 4.495 -2 5 C-2 4.34 -2 3.68 -2 3 C-1.34 3 -0.68 3 0 3 C0 2.01 0 1.02 0 0 Z " fill="#98EF5A" transform="translate(88,92)"/>
<path d="M0 0 C2.27024968 -0.08097324 4.54132075 -0.13917704 6.8125 -0.1875 C8.07707031 -0.22230469 9.34164062 -0.25710937 10.64453125 -0.29296875 C14 0 14 0 15.94921875 1.51171875 C16.29597656 2.00285156 16.64273438 2.49398437 17 3 C17 2.01 17 1.02 17 0 C19.97 0 22.94 0 26 0 C25.34 1.32 24.68 2.64 24 4 C23.34 4 22.68 4 22 4 C22 4.99 22 5.98 22 7 C22.33 6.34 22.66 5.68 23 5 C25.97 5.495 25.97 5.495 29 6 C25.31034007 9.68965993 20.22371302 9.09160579 15.25 9.1875 C9.63694379 9.1524184 4.43791619 8.34744826 -1 7 C0.32 6.67 1.64 6.34 3 6 C2.42655063 3.13275314 2.1385485 2.1385485 0 0 Z " fill="#76F441" transform="translate(78,136)"/>
<path d="M0 0 C2.0894988 3.1342482 3.56445886 6.26109446 5.125 9.6875 C5.66382812 10.86699219 6.20265625 12.04648438 6.7578125 13.26171875 C7.16773437 14.16535156 7.57765625 15.06898437 8 16 C7.22140625 16.45375 6.4428125 16.9075 5.640625 17.375 C1.82417106 19.72358704 -0.56879865 21.70639594 -2 26 C-2.66 26 -3.32 26 -4 26 C-4 24.02 -4 22.04 -4 20 C-4.66 20 -5.32 20 -6 20 C-6.4454011 14.65518684 -5.5942824 11.55305374 -3.0234375 6.8671875 C-1.80833945 4.65032923 -0.88684492 2.36491979 0 0 Z " fill="#889EF8" transform="translate(104,60)"/>
<path d="M0 0 C3.56401277 0.43223134 5.20614973 1.8747974 7.625 4.4375 C8.21539062 5.05496094 8.80578125 5.67242187 9.4140625 6.30859375 C9.93742187 6.86675781 10.46078125 7.42492187 11 8 C11.66 8.66 12.32 9.32 13 10 C6.375 11 6.375 11 3 11 C2.071875 11.680625 1.14375 12.36125 0.1875 13.0625 C-3 15 -3 15 -6.375 14.75 C-7.674375 14.37875 -7.674375 14.37875 -9 14 C-9.33 12.68 -9.66 11.36 -10 10 C-9.01 10 -8.02 10 -7 10 C-6.9071875 9.1646875 -6.9071875 9.1646875 -6.8125 8.3125 C-5.66383862 5.043233 -3.51178856 3.32340442 -1 1 C-0.67 0.67 -0.34 0.34 0 0 Z " fill="#6BAEF1" transform="translate(109,76)"/>
<path d="M0 0 C0.33 0 0.66 0 1 0 C2.125 5.75 2.125 5.75 1 8 C0.34 8 -0.32 8 -1 8 C-1.33 11.63 -1.66 15.26 -2 19 C-1.34 19 -0.68 19 0 19 C-0.33 20.98 -0.66 22.96 -1 25 C-0.34 25 0.32 25 1 25 C1.66 25.99 2.32 26.98 3 28 C3.66 27.34 4.32 26.68 5 26 C5.33 26.66 5.66 27.32 6 28 C5.67 28.99 5.34 29.98 5 31 C5.99 31.33 6.98 31.66 8 32 C7.79375 32.7425 7.5875 33.485 7.375 34.25 C6.95591249 37.32330841 7.38050989 38.42786866 9 41 C7.02 41 5.04 41 3 41 C2.18618205 39.06305322 1.37399084 37.12542289 0.5625 35.1875 C0.11003906 34.10855469 -0.34242187 33.02960938 -0.80859375 31.91796875 C-4.89463414 21.91051901 -4.01564768 9.94350855 0 0 Z " fill="#F4E71B" transform="translate(48,81)"/>
<path d="M0 0 C3.25544627 2.39874988 5.58475963 4.16764118 7 8 C6.828125 10.18359375 6.828125 10.18359375 6.25 12.4375 C6.05148438 13.21867187 5.85296875 13.99984375 5.6484375 14.8046875 C4.91778686 17.27833607 4.06184486 19.64877209 3 22 C1.68 22 0.36 22 -1 22 C-2.25232927 14.79910669 -3.56820513 6.69038462 0 0 Z " fill="#D883EF" transform="translate(97,50)"/>
<path d="M0 0 C0.58523437 0.35835937 1.17046875 0.71671875 1.7734375 1.0859375 C1.4434375 2.0759375 1.1134375 3.0659375 0.7734375 4.0859375 C-1.5365625 3.7559375 -3.8465625 3.4259375 -6.2265625 3.0859375 C-6.5565625 4.0759375 -6.8865625 5.0659375 -7.2265625 6.0859375 C-8.2165625 6.4159375 -9.2065625 6.7459375 -10.2265625 7.0859375 C-10.5565625 8.0759375 -10.8865625 9.0659375 -11.2265625 10.0859375 C-12.8765625 10.4159375 -14.5265625 10.7459375 -16.2265625 11.0859375 C-16.5565625 12.7359375 -16.8865625 14.3859375 -17.2265625 16.0859375 C-18.4021875 16.17875 -18.4021875 16.17875 -19.6015625 16.2734375 C-20.4678125 16.5415625 -21.3340625 16.8096875 -22.2265625 17.0859375 C-23.60122875 19.56229762 -23.60122875 19.56229762 -24.2265625 22.0859375 C-24.8865625 21.7559375 -25.5465625 21.4259375 -26.2265625 21.0859375 C-27.2165625 22.0759375 -28.2065625 23.0659375 -29.2265625 24.0859375 C-26.45007919 14.21399683 -16.1683939 6.8976784 -7.94921875 1.625 C-2.88597665 -1.18476936 -2.88597665 -1.18476936 0 0 Z " fill="#EFAB88" transform="translate(80.2265625,48.9140625)"/>
<path d="M0 0 C4.67368677 -0.26467973 7.80234016 0.47304477 12.0625 2.375 C13.06410156 2.81585938 14.06570312 3.25671875 15.09765625 3.7109375 C16.05542969 4.13632813 17.01320312 4.56171875 18 5 C19.6635266 5.67446385 21.32913817 6.34391847 23 7 C22.34 7.66 21.68 8.32 21 9 C19.88625 8.649375 18.7725 8.29875 17.625 7.9375 C14.19735524 6.62760669 14.19735524 6.62760669 12 8 C6.29008444 8.54903034 3.50192237 7.51369551 -1 4 C-0.67 2.68 -0.34 1.36 0 0 Z " fill="#0DD7E3" transform="translate(117,86)"/>
<path d="M0 0 C0 9.9 0 19.8 0 30 C-0.66 30 -1.32 30 -2 30 C-2.36676314 27.81457668 -2.717827 25.62651594 -3.0625 23.4375 C-3.35833984 21.61025391 -3.35833984 21.61025391 -3.66015625 19.74609375 C-4.00588346 15.93514664 -3.6146708 12.76033899 -3 9 C-3.36887653 5.69285416 -3.36887653 5.69285416 -4 3 C-5.65 3.33 -7.3 3.66 -9 4 C-9.66 3.01 -10.32 2.02 -11 1 C-9 0 -9 0 0 0 Z " fill="#FC7DC4" transform="translate(91,47)"/>
<path d="M0 0 C2.64 0 5.28 0 8 0 C8.33 1.32 8.66 2.64 9 4 C10.32 4.33 11.64 4.66 13 5 C13 6.32 13 7.64 13 9 C6.89357521 9.78287497 2.99540421 7.10825151 -2 4 C-1.34 2.68 -0.68 1.36 0 0 Z " fill="#A9EC27" transform="translate(68,133)"/>
<path d="M0 0 C2.97 0 5.94 0 9 0 C8.34 1.32 7.68 2.64 7 4 C6.34 4 5.68 4 5 4 C5 4.99 5 5.98 5 7 C5.33 6.34 5.66 5.68 6 5 C8.97 5.495 8.97 5.495 12 6 C8.1533912 9.8466088 2.78091826 9.05641991 -2.375 9.0625 C-4.25004775 9.04653244 -6.12508307 9.02730462 -8 9 C-8 8.67 -8 8.34 -8 8 C-6.35 7.67 -4.7 7.34 -3 7 C-2.67 6.01 -2.34 5.02 -2 4 C-1.34 3.34 -0.68 2.68 0 2 C0 1.34 0 0.68 0 0 Z " fill="#28EF65" transform="translate(95,136)"/>
<path d="M0 0 C2.00893346 3.01340019 2.68421229 4.45903618 3 8 C2.14453125 10.859375 2.14453125 10.859375 0.8125 13.75 C0.38582031 14.71421875 -0.04085937 15.6784375 -0.48046875 16.671875 C-2 19 -2 19 -4.17578125 19.828125 C-4.77777344 19.88484375 -5.37976563 19.9415625 -6 20 C-6.4454011 14.65518684 -5.5942824 11.55305374 -3.0234375 6.8671875 C-1.80833945 4.65032923 -0.88684492 2.36491979 0 0 Z " fill="#B28DF3" transform="translate(104,60)"/>
<path d="M0 0 C0.99 0 1.98 0 3 0 C3 0.66 3 1.32 3 2 C3.99 2.33 4.98 2.66 6 3 C5.67 3.99 5.34 4.98 5 6 C5 7.32 5 8.64 5 10 C3.35 10 1.7 10 0 10 C0 10.99 0 11.98 0 13 C-0.99 12.67 -1.98 12.34 -3 12 C-3.33 9.36 -3.66 6.72 -4 4 C-3.01 3.34 -2.02 2.68 -1 2 C-0.67 1.34 -0.34 0.68 0 0 Z " fill="#77D699" transform="translate(97,88)"/>
<path d="M0 0 C0.66 0.66 1.32 1.32 2 2 C-2.56603659 4.80986867 -5.84553052 5.27318722 -11.046875 5.0078125 C-13.081518 4.85293079 -13.081518 4.85293079 -15 6 C-15 5.01 -15 4.02 -15 3 C-14.34 3 -13.68 3 -13 3 C-12.814375 2.360625 -12.62875 1.72125 -12.4375 1.0625 C-11 -1 -11 -1 -7.625 -1.875 C-4.13912996 -1.99520242 -2.77960963 -1.95602159 0 0 Z " fill="#18F67E" transform="translate(115,137)"/>
<path d="M0 0 C1.125 1.8125 1.125 1.8125 1.125 5.8125 C0.465 5.8125 -0.195 5.8125 -0.875 5.8125 C-0.875 6.8025 -0.875 7.7925 -0.875 8.8125 C-1.535 8.8125 -2.195 8.8125 -2.875 8.8125 C-2.875 9.4725 -2.875 10.1325 -2.875 10.8125 C-3.865 10.8125 -4.855 10.8125 -5.875 10.8125 C-5.545 9.1625 -5.215 7.5125 -4.875 5.8125 C-5.865 5.8125 -6.855 5.8125 -7.875 5.8125 C-7.875 3.8325 -7.875 1.8525 -7.875 -0.1875 C-2.40664557 -1.52420886 -2.40664557 -1.52420886 0 0 Z " fill="#C7CC6D" transform="translate(88.875,86.1875)"/>
<path d="M0 0 C0.99 0 1.98 0 3 0 C4.82225203 2.34289547 6 3.97884109 6 7 C4.25091697 10.49816606 1.49616539 13.2519173 -2 15 C-2.19392201 9.47322267 -1.7479503 5.24385089 0 0 Z " fill="#47F388" transform="translate(95,101)"/>
<path d="M0 0 C1.2019586 6.22833095 0.93161919 9.37129115 -2 15 C-2.66 15 -3.32 15 -4 15 C-6.25740552 7.02962206 -6.25740552 7.02962206 -5.25 3 C-3.71567722 0.54508356 -2.89516864 0 0 0 Z " fill="#6AF177" transform="translate(94,97)"/>
<path d="M0 0 C0.99 0 1.98 0 3 0 C3.36964286 5.42142857 3.36964286 5.42142857 1.5625 8.25 C1.046875 8.8275 0.53125 9.405 0 10 C-0.33 10.66 -0.66 11.32 -1 12 C-1.99 12 -2.98 12 -4 12 C-4 12.66 -4 13.32 -4 14 C-4.99 14 -5.98 14 -7 14 C-7 12.35 -7 10.7 -7 9 C-6.01 8.67 -5.02 8.34 -4 8 C-4 7.34 -4 6.68 -4 6 C-3.34 6 -2.68 6 -2 6 C-1.855625 5.195625 -1.71125 4.39125 -1.5625 3.5625 C-1 1 -1 1 0 0 Z " fill="#9BBDB1" transform="translate(97,80)"/>
<path d="M0 0 C2.1875 -0.3125 2.1875 -0.3125 5 0 C7.8125 2.5 7.8125 2.5 10 5 C3.375 6 3.375 6 0 6 C-2.0360882 7.27754554 -4.04109119 8.60699818 -6 10 C-6.33 8.68 -6.66 7.36 -7 6 C-6.030625 5.38125 -5.06125 4.7625 -4.0625 4.125 C-0.97164638 2.34321154 -0.97164638 2.34321154 0 0 Z " fill="#3DB7EE" transform="translate(112,81)"/>
<path d="M0 0 C1.65 0.33 3.3 0.66 5 1 C5.3125 3.6875 5.3125 3.6875 5 7 C2.37632897 10.20670904 -0.15211415 12.4323428 -4 14 C-3.45773019 10.20411134 -1.79872437 8.52788007 1 6 C0.01 6.33 -0.98 6.66 -2 7 C-1.34 4.69 -0.68 2.38 0 0 Z " fill="#C7DD54" transform="translate(80,96)"/>
<path d="M0 0 C0.66 0 1.32 0 2 0 C2 0.66 2 1.32 2 2 C2.99 2 3.98 2 5 2 C4.67 3.32 4.34 4.64 4 6 C3.34 6 2.68 6 2 6 C1.34 7.65 0.68 9.3 0 11 C-0.99 11 -1.98 11 -3 11 C-3.125 5.25 -3.125 5.25 -2 3 C-1.34 3 -0.68 3 0 3 C0 2.01 0 1.02 0 0 Z " fill="#A7DC68" transform="translate(88,92)"/>
<path d="M0 0 C0 2.31 0 4.62 0 7 C-2.31 7.66 -4.62 8.32 -7 9 C-8.04059132 5.87822605 -8.32284898 4.92916561 -7 2 C-4.55683729 0.74709605 -2.75474605 0 0 0 Z " fill="#C097E0" transform="translate(99,71)"/>
<path d="M0 0 C3 2 3 2 3.875 3.75 C4.05871057 7.05679021 2.60430783 9.17641821 1 12 C0.34 12 -0.32 12 -1 12 C-1.33 12.99 -1.66 13.98 -2 15 C-2.3690205 4.44191344 -2.3690205 4.44191344 0 0 Z " fill="#E578F0" transform="translate(97,50)"/>
<path d="M0 0 C1.32 0.66 2.64 1.32 4 2 C4 2.66 4 3.32 4 4 C4.66 4 5.32 4 6 4 C6 4.66 6 5.32 6 6 C6.66 6.33 7.32 6.66 8 7 C7.34 7 6.68 7 6 7 C5.67 7.99 5.34 8.98 5 10 C3.125 9.8125 3.125 9.8125 1 9 C-0.5225431 6.31742407 -1.12235992 4.75455283 -0.625 1.6875 C-0.41875 1.130625 -0.2125 0.57375 0 0 Z " fill="#D0F427" transform="translate(62,126)"/>
<path d="M0 0 C2.125 0.9375 2.125 0.9375 4 2 C3.67 2.99 3.34 3.98 3 5 C0.69 4.67 -1.62 4.34 -4 4 C-4.33 4.99 -4.66 5.98 -5 7 C-5.99 7.33 -6.98 7.66 -8 8 C-8.66 8.66 -9.32 9.32 -10 10 C-10.33 8.68 -10.66 7.36 -11 6 C-9.54195831 5.18697675 -8.08355685 4.37459869 -6.625 3.5625 C-5.40683594 2.88380859 -5.40683594 2.88380859 -4.1640625 2.19140625 C-2.79003378 1.4349464 -1.40290739 0.70145369 0 0 Z " fill="#E5998A" transform="translate(78,48)"/>
<path d="M0 0 C0.99 0 1.98 0 3 0 C4.6875 2 4.6875 2 6 4 C5.01 4.495 5.01 4.495 4 5 C4 5.99 4 6.98 4 8 C-1.75 8.125 -1.75 8.125 -4 7 C-4 6.01 -4 5.02 -4 4 C-3.01 3.67 -2.02 3.34 -1 3 C-0.67 2.01 -0.34 1.02 0 0 Z " fill="#51FE41" transform="translate(89,136)"/>
<path d="M0 0 C2.02079521 1.66935257 2.93919875 2.82523313 3.80859375 5.32421875 C4.0453282 8.63366976 3.28386661 10.74057793 2.0625 13.8125 C1.68222656 14.78832031 1.30195312 15.76414062 0.91015625 16.76953125 C0.60980469 17.50558594 0.30945313 18.24164063 0 19 C-0.66 18.67 -1.32 18.34 -2 18 C-1.57783127 15.4669876 -1.21134574 13.37296307 0.0625 11.125 C1.20490482 8.53554907 1.0333706 7.02692005 0.625 4.25 C0.51414062 3.45078125 0.40328125 2.6515625 0.2890625 1.828125 C0.14597656 0.92320313 0.14597656 0.92320313 0 0 Z " fill="#C181EE" transform="translate(100,53)"/>
<path d="M0 0 C0.33 0 0.66 0 1 0 C1.33 5.61 1.66 11.22 2 17 C1.01 17 0.02 17 -1 17 C-2.59854133 11.0853971 -1.25890714 5.84715547 0 0 Z " fill="#E883DD" transform="translate(94,56)"/>
<path d="M0 0 C0.66 0.99 1.32 1.98 2 3 C1.2575 3.4125 0.515 3.825 -0.25 4.25 C-4.0771971 6.68548907 -6.54884949 8.64654847 -8 13 C-8.66 13 -9.32 13 -10 13 C-10 10.69 -10 8.38 -10 6 C-9.0925 5.71125 -8.185 5.4225 -7.25 5.125 C-4.67797092 4.23468224 -2.38653234 3.28505587 0 2 C0 1.34 0 0.68 0 0 Z " fill="#7EA7E6" transform="translate(110,73)"/>
<path d="M0 0 C0.99 0 1.98 0 3 0 C3 1.32 3 2.64 3 4 C2.34 4 1.68 4 1 4 C1 5.32 1 6.64 1 8 C1.99 8.33 2.98 8.66 4 9 C0.04 9 -3.92 9 -8 9 C-8 8.67 -8 8.34 -8 8 C-6.35 7.67 -4.7 7.34 -3 7 C-2.67 6.01 -2.34 5.02 -2 4 C-1.34 3.34 -0.68 2.68 0 2 C0 1.34 0 0.68 0 0 Z " fill="#44E65A" transform="translate(95,136)"/>
<path d="M0 0 C-0.33 0.99 -0.66 1.98 -1 3 C-1.66 3 -2.32 3 -3 3 C-3 4.32 -3 5.64 -3 7 C-4.65 6.67 -6.3 6.34 -8 6 C-8.33 4.68 -8.66 3.36 -9 2 C-5.62902617 0.50178941 -3.79557881 0 0 0 Z " fill="#64BDD7" transform="translate(108,84)"/>
<path d="M0 0 C0.66 0 1.32 0 2 0 C1.4587 4.54692 0.44784436 8.10158121 -2 12 C-4.1875 12.875 -4.1875 12.875 -6 13 C-4.31326082 8.50202887 -2.18326108 4.27113698 0 0 Z " fill="#A397F5" transform="translate(104,67)"/>
<path d="M0 0 C0.66 0.33 1.32 0.66 2 1 C-1.625 7.875 -1.625 7.875 -5 9 C-5.33 7.02 -5.66 5.04 -6 3 C-4.03533587 1.93224776 -2.03144641 0.93446535 0 0 Z " fill="#48D1C6" transform="translate(107,89)"/>
<path d="M0 0 C2.475 0.495 2.475 0.495 5 1 C5.5625 2.9375 5.5625 2.9375 6 5 C5 6 5 6 2.4375 6.0625 C1.2309375 6.0315625 1.2309375 6.0315625 0 6 C0 4.02 0 2.04 0 0 Z " fill="#DEBE73" transform="translate(81,86)"/>
<path d="M0 0 C2.875 -0.125 2.875 -0.125 6 0 C6.66 0.66 7.32 1.32 8 2 C7.01 2 6.02 2 5 2 C4.34 3.32 3.68 4.64 3 6 C1.68 5.34 0.36 4.68 -1 4 C-0.67 2.68 -0.34 1.36 0 0 Z " fill="#1ACDE9" transform="translate(117,86)"/>
<path d="M0 0 C0.33 0 0.66 0 1 0 C1 1.98 1 3.96 1 6 C1.66 6 2.32 6 3 6 C3 9.3 3 12.6 3 16 C2.34 16 1.68 16 1 16 C0.63818911 13.70952777 0.28576776 11.41757055 -0.0625 9.125 C-0.25972656 7.84882812 -0.45695312 6.57265625 -0.66015625 5.2578125 C-1 2 -1 2 0 0 Z " fill="#F389B9" transform="translate(88,61)"/>
<path d="M0 0 C1.125 5.625 1.125 5.625 0 9 C-0.99 9.33 -1.98 9.66 -3 10 C-4.55913346 6.88173308 -3.66585225 4.32926126 -3 1 C-1 0 -1 0 0 0 Z " fill="#68FB66" transform="translate(93,111)"/>
<path d="M0 0 C0.33 1.32 0.66 2.64 1 4 C-0.8125 5.5625 -0.8125 5.5625 -3 7 C-3.99 6.67 -4.98 6.34 -6 6 C-3.84615385 0 -3.84615385 0 0 0 Z " fill="#82E37B" transform="translate(94,97)"/>
<path d="M0 0 C0.33 0 0.66 0 1 0 C2.125 5.75 2.125 5.75 1 8 C0.34 8 -0.32 8 -1 8 C-1.33 11.63 -1.66 15.26 -2 19 C-2.33 19 -2.66 19 -3 19 C-3.33693273 12.03672362 -2.3030887 6.56654456 0 0 Z " fill="#F6C929" transform="translate(48,81)"/>
<path d="M0 0 C0.99 0 1.98 0 3 0 C3.125 5.75 3.125 5.75 2 8 C1.34 8 0.68 8 0 8 C0 7.01 0 6.02 0 5 C-0.66 5 -1.32 5 -2 5 C-1.125 1.125 -1.125 1.125 0 0 Z " fill="#9AAFCB" transform="translate(97,80)"/>
<path d="M0 0 C0.66 0 1.32 0 2 0 C2.1875 3.375 2.1875 3.375 2 7 C1.01 7.66 0.02 8.32 -1 9 C-1.80967438 6.08517222 -2.21845993 4.53886783 -1.0625 1.6875 C-0.711875 1.130625 -0.36125 0.57375 0 0 Z " fill="#B1F04B" transform="translate(82,104)"/>
<path d="M0 0 C1.9375 0.375 1.9375 0.375 4 1 C4.33 1.66 4.66 2.32 5 3 C3.68 3 2.36 3 1 3 C0.71125 3.639375 0.4225 4.27875 0.125 4.9375 C-1 7 -1 7 -3 8 C-3.33 7.01 -3.66 6.02 -4 5 C-2.0625 2.3125 -2.0625 2.3125 0 0 Z " fill="#53AEED" transform="translate(111,78)"/>
<path d="M0 0 C2.475 0.495 2.475 0.495 5 1 C4.34 2.98 3.68 4.96 3 7 C2.01 7 1.02 7 0 7 C0 4.69 0 2.38 0 0 Z " fill="#FA73E5" transform="translate(92,49)"/>
<path d="M0 0 C0.66 0 1.32 0 2 0 C2.33 2.64 2.66 5.28 3 8 C1.02 8.99 1.02 8.99 -1 10 C-1.125 2.25 -1.125 2.25 0 0 Z " fill="#59F779" transform="translate(94,106)"/>
<path d="M0 0 C0.99 0 1.98 0 3 0 C3 0.66 3 1.32 3 2 C3.99 2.33 4.98 2.66 6 3 C5.01 4.485 5.01 4.485 4 6 C2.68 6 1.36 6 0 6 C-0.38218767 4.34385343 -0.71395102 2.67542976 -1 1 C-0.67 0.67 -0.34 0.34 0 0 Z " fill="#71C7BD" transform="translate(97,88)"/>
<path d="M0 0 C0.68707555 2.49064888 1 4.37886292 1 7 C0.34 7 -0.32 7 -1 7 C-1.33 7.99 -1.66 8.98 -2 10 C-2.66 10 -3.32 10 -4 10 C-3.67 10.99 -3.34 11.98 -3 13 C-3.66 13 -4.32 13 -5 13 C-4.125 7.25 -4.125 7.25 -3 5 C-2.34 5 -1.68 5 -1 5 C-0.67 3.35 -0.34 1.7 0 0 Z " fill="#FBBA57" transform="translate(54,69)"/>
<path d="M0 0 C2.46800047 1.15173355 4.04783565 2.04783565 6 4 C3.36 4.66 0.72 5.32 -2 6 C-1.34 4.02 -0.68 2.04 0 0 Z " fill="#0DF48B" transform="translate(111,135)"/>
<path d="M0 0 C0.66 0.33 1.32 0.66 2 1 C1.50769231 6.53846154 1.50769231 6.53846154 -1.0625 8.875 C-2.0215625 9.431875 -2.0215625 9.431875 -3 10 C-2.39009109 6.44219804 -1.4216319 3.3171411 0 0 Z " fill="#9AF94D" transform="translate(84,111)"/>
<path d="M0 0 C0.99 0 1.98 0 3 0 C3 1.98 3 3.96 3 6 C1.68 6 0.36 6 -1 6 C-1.042721 4.33388095 -1.04063832 2.66617115 -1 1 C-0.67 0.67 -0.34 0.34 0 0 Z " fill="#D597C7" transform="translate(92,73)"/>
<path d="M0 0 C-0.33 0.99 -0.66 1.98 -1 3 C-1.33 2.34 -1.66 1.68 -2 1 C-3.65 1.33 -5.3 1.66 -7 2 C-7.66 1.01 -8.32 0.02 -9 -1 C-5.79937313 -2.60031344 -3.27728194 -1.03173691 0 0 Z " fill="#F77FAC" transform="translate(89,49)"/>
<path d="M0 0 C1.65 0 3.3 0 5 0 C5 1.65 5 3.3 5 5 C3.35 4.67 1.7 4.34 0 4 C0 2.68 0 1.36 0 0 Z " fill="#89FB26" transform="translate(76,137)"/>
<path d="M0 0 C2.125 0.9375 2.125 0.9375 4 2 C3.67 2.99 3.34 3.98 3 5 C0.03 4.505 0.03 4.505 -3 4 C-2.67 3.01 -2.34 2.02 -2 1 C-1.34 0.67 -0.68 0.34 0 0 Z " fill="#F2949C" transform="translate(78,48)"/>
<path d="M0 0 C0.33 0.99 0.66 1.98 1 3 C-0.9375 6.1875 -0.9375 6.1875 -3 9 C-3.99 8.67 -4.98 8.34 -6 8 C-4.02 5.36 -2.04 2.72 0 0 Z " fill="#071E19" transform="translate(135,121)"/>
<path d="M0 0 C0.33 0 0.66 0 1 0 C0.67 3.3 0.34 6.6 0 10 C-0.99 10.33 -1.98 10.66 -3 11 C-2.69078116 9.54096742 -2.37751201 8.08279278 -2.0625 6.625 C-1.88847656 5.81289062 -1.71445313 5.00078125 -1.53515625 4.1640625 C-1 2 -1 2 0 0 Z " fill="#8AFB54" transform="translate(87,110)"/>
<path d="M0 0 C1.32 0.33 2.64 0.66 4 1 C4 2.32 4 3.64 4 5 C1.03 4.505 1.03 4.505 -2 4 C-1.34 2.68 -0.68 1.36 0 0 Z " fill="#5DD6AE" transform="translate(98,93)"/>
<path d="M0 0 C0.33 0 0.66 0 1 0 C0.67 2.31 0.34 4.62 0 7 C-0.66 6.67 -1.32 6.34 -2 6 C-2.99 6.99 -3.98 7.98 -5 9 C-3.75471468 5.55151758 -2.38532951 2.80016942 0 0 Z " fill="#E5B277" transform="translate(56,64)"/>
<path d="M0 0 C2 3 2 3 1.75 4.9375 C0.97936717 7.05674028 0.0643413 9.01322958 -1 11 C-1.93423645 7.98968256 -2.04449911 7.13349732 -1 4 C-0.65772583 2.66893378 -0.32248257 1.33599921 0 0 Z " fill="#D17CFB" transform="translate(100,56)"/>
<path d="M0 0 C0.99 0 1.98 0 3 0 C2.67 3.3 2.34 6.6 2 10 C-0.4294516 6.3558226 -0.16179575 4.28758728 0 0 Z " fill="#F4E12D" transform="translate(45,100)"/>
<path d="M0 0 C0.99 0 1.98 0 3 0 C3.66 1.32 4.32 2.64 5 4 C4 5 4 5 1.4375 5.0625 C0.2309375 5.0315625 0.2309375 5.0315625 -1 5 C-0.67 3.35 -0.34 1.7 0 0 Z " fill="#56EB8D" transform="translate(95,101)"/>
<path d="M0 0 C0.66 0 1.32 0 2 0 C2 0.66 2 1.32 2 2 C2.99 2 3.98 2 5 2 C4.67 3.32 4.34 4.64 4 6 C2.68 5.67 1.36 5.34 0 5 C0 3.35 0 1.7 0 0 Z " fill="#9FD283" transform="translate(88,92)"/>
<path d="M0 0 C1.5 1.25 1.5 1.25 3 3 C3 4.32 3 5.64 3 7 C2.01 6.67 1.02 6.34 0 6 C-1.1875 3.4375 -1.1875 3.4375 -2 1 C-1.34 0.67 -0.68 0.34 0 0 Z " fill="#C7BC8F" transform="translate(87,85)"/>
<path d="M0 0 C1.32 0 2.64 0 4 0 C4 0.66 4 1.32 4 2 C3.34 2 2.68 2 2 2 C2 4.31 2 6.62 2 9 C1.34 8.67 0.68 8.34 0 8 C0 5.36 0 2.72 0 0 Z " fill="#E2F62C" transform="translate(60,124)"/>
<path d="M0 0 C2.25245881 2.68841859 3.88213958 4.64641875 5 8 C4.01 8.495 4.01 8.495 3 9 C0.9375 6.75 0.9375 6.75 -1 4 C-0.75 1.6875 -0.75 1.6875 0 0 Z " fill="#171408" transform="translate(49,118)"/>
<path d="M0 0 C2 0 2 0 4.125 1.875 C6 4 6 4 6 6 C4.35 6 2.7 6 1 6 C0.67 4.02 0.34 2.04 0 0 Z " fill="#F7F012" transform="translate(51,116)"/>
<path d="M0 0 C0.99 0 1.98 0 3 0 C2.67 1.98 2.34 3.96 2 6 C1.01 6.33 0.02 6.66 -1 7 C-1.04254356 5.00045254 -1.04080783 2.99958364 -1 1 C-0.67 0.67 -0.34 0.34 0 0 Z " fill="#7AF06D" transform="translate(90,103)"/>
<path d="M0 0 C1.32 0 2.64 0 4 0 C4.625 2.875 4.625 2.875 5 6 C4.34 6.66 3.68 7.32 3 8 C2.01 5.36 1.02 2.72 0 0 Z " fill="#37E3AE" transform="translate(101,98)"/>
<path d="M0 0 C0.66 0.33 1.32 0.66 2 1 C1.67 1.99 1.34 2.98 1 4 C-1.5625 5.1875 -1.5625 5.1875 -4 6 C-4 4.68 -4 3.36 -4 2 C-2.125 0.9375 -2.125 0.9375 0 0 Z " fill="#48C2DF" transform="translate(109,85)"/>
<path d="M0 0 C0.99 1.32 1.98 2.64 3 4 C2.34 4.66 1.68 5.32 1 6 C0.67 5.67 0.34 5.34 0 5 C-0.33 5.66 -0.66 6.32 -1 7 C-1.66 6.67 -2.32 6.34 -3 6 C-2.01 4.02 -1.02 2.04 0 0 Z " fill="#8B8DE3" transform="translate(107,67)"/>
<path d="M0 0 C0.99 0 1.98 0 3 0 C4.6875 2 4.6875 2 6 4 C3 5 3 5 0.8125 4.0625 C0.214375 3.711875 -0.38375 3.36125 -1 3 C-0.67 2.01 -0.34 1.02 0 0 Z " fill="#58FE5A" transform="translate(89,136)"/>
<path d="M0 0 C2.31 0 4.62 0 7 0 C7.33 0.99 7.66 1.98 8 3 C5.69 3 3.38 3 1 3 C0.67 2.01 0.34 1.02 0 0 Z " fill="#AEFB30" transform="translate(69,133)"/>
<path d="M0 0 C0.66 0.33 1.32 0.66 2 1 C0.71937515 2.7074998 -0.61767557 4.37373596 -2 6 C-2.66 6 -3.32 6 -4 6 C-3.6875 4.125 -3.6875 4.125 -3 2 C-2.01 1.34 -1.02 0.68 0 0 Z " fill="#C8EB45" transform="translate(80,104)"/>
<path d="M0 0 C2.86724686 0.57344937 3.8614515 0.8614515 6 3 C3.69 3.33 1.38 3.66 -1 4 C-1.33 3.34 -1.66 2.68 -2 2 C-1.34 2 -0.68 2 0 2 C0 1.34 0 0.68 0 0 Z " fill="#2CC0E8" transform="translate(116,83)"/>
<path d="M0 0 C1.32 0.33 2.64 0.66 4 1 C0.535 3.97 0.535 3.97 -3 7 C-2.67 5.68 -2.34 4.36 -2 3 C-1.34 3 -0.68 3 0 3 C0 2.01 0 1.02 0 0 Z " fill="#18100D" transform="translate(57,59)"/>
<path d="M0 0 C0 0.66 0 1.32 0 2 C-1.175625 1.9690625 -1.175625 1.9690625 -2.375 1.9375 C-4.98114961 1.81315937 -4.98114961 1.81315937 -7 3 C-7 2.01 -7 1.02 -7 0 C-4.3333581 -1.33332095 -2.83319697 -0.67102033 0 0 Z " fill="#11FD6D" transform="translate(107,140)"/>
<path d="M0 0 C1.98 0 3.96 0 6 0 C5.34 1.32 4.68 2.64 4 4 C2.68 3.67 1.36 3.34 0 3 C0 2.01 0 1.02 0 0 Z " fill="#31FE72" transform="translate(98,136)"/>
<path d="M0 0 C0.66 0 1.32 0 2 0 C2 1.98 2 3.96 2 6 C1.01 6 0.02 6 -1 6 C-1.042721 4.33388095 -1.04063832 2.66617115 -1 1 C-0.67 0.67 -0.34 0.34 0 0 Z " fill="#A7C49A" transform="translate(91,88)"/>
<path d="M0 0 C0.99 0 1.98 0 3 0 C1.79618552 2.49361571 0.54571278 4.68143083 -1 7 C-1.625 5.1875 -1.625 5.1875 -2 3 C-1.34 2.01 -0.68 1.02 0 0 Z " fill="#CEA8AC" transform="translate(89,79)"/>
</svg>
