<?xml version="1.0" encoding="UTF-8"?>
<svg version="1.1" xmlns="http://www.w3.org/2000/svg" width="296" height="306">
<path d="M0 0 C97.68 0 195.36 0 296 0 C296 100.98 296 201.96 296 306 C198.32 306 100.64 306 0 306 C0 205.02 0 104.04 0 0 Z " fill="#000000" transform="translate(0,0)"/>
<path d="M0 0 C16.5 0 33 0 50 0 C50.33 19.14 50.66 38.28 51 58 C64.2 44.8 77.4 31.6 91 18 C98.875 24.75 98.875 24.75 101.36499023 27.25146484 C102.20506874 28.09165665 102.20506874 28.09165665 103.06211853 28.94882202 C103.63845535 29.53032013 104.21479218 30.11181824 104.80859375 30.7109375 C105.42017838 31.32393707 106.031763 31.93693665 106.66188049 32.56851196 C108.58947559 34.50164564 110.51353928 36.43824987 112.4375 38.375 C113.75432404 39.69684699 115.07137926 41.01846372 116.38867188 42.33984375 C119.59512373 45.55724299 122.79841629 48.77775681 126 52 C124.56741228 55.27196452 122.81174684 57.43203956 120.28466797 59.94238281 C119.51340576 60.71340332 118.74214355 61.48442383 117.94750977 62.27880859 C117.13725342 63.07883301 116.32699707 63.87885742 115.4921875 64.703125 C114.37469116 65.8176001 114.37469116 65.8176001 113.23461914 66.95458984 C110.45353815 69.7252167 107.66374494 72.48708735 104.875 75.25 C98.64625 81.4375 92.4175 87.625 86 94 C105.14 94.33 124.28 94.66 144 95 C144 111.17 144 127.34 144 144 C124.86 144.33 105.72 144.66 86 145 C99.2 158.2 112.4 171.4 126 185 C124.33037306 188.33925388 123.35708077 189.88982537 120.83544922 192.39160156 C119.87467972 193.35214447 119.87467972 193.35214447 118.89450073 194.33209229 C118.20486237 195.01140808 117.515224 195.69072388 116.8046875 196.390625 C116.09724396 197.09523865 115.38980042 197.79985229 114.66091919 198.52581787 C112.40360138 200.7719539 110.13942367 203.01103009 107.875 205.25 C106.34199047 206.77297717 104.80943285 208.29640939 103.27734375 209.8203125 C99.52345427 213.55216815 95.76391086 217.27825351 92 221 C86.68928515 216.5658109 81.75162276 211.8849776 76.87890625 206.9765625 C76.2175769 206.31422607 75.55624756 205.65188965 74.87487793 204.96948242 C72.43465475 202.52407651 69.99882681 200.07428783 67.5625 197.625 C62.096875 192.13875 56.63125 186.6525 51 181 C50.67 200.14 50.34 219.28 50 239 C33.5 239 17 239 0 239 C0 219.86 0 200.72 0 181 C-6.11414888 186.29294632 -6.11414888 186.29294632 -11.9375 191.82397461 C-12.59758057 192.48413071 -13.25766113 193.1442868 -13.93774414 193.82444763 C-14.95856079 194.85300621 -14.95856079 194.85300621 -16 195.90234375 C-16.7211499 196.6249086 -17.4422998 197.34747345 -18.18530273 198.0919342 C-20.45925415 200.37142604 -22.72967954 202.6543924 -25 204.9375 C-26.55315235 206.49567506 -28.10653567 208.05361993 -29.66015625 209.61132812 C-33.44277586 213.40489759 -37.2225169 217.20131615 -41 221 C-45.83298806 216.97251947 -50.38110004 212.75620587 -54.80859375 208.2890625 C-55.42017838 207.67606293 -56.031763 207.06306335 -56.66188049 206.43148804 C-58.58947559 204.49835436 -60.51353928 202.56175013 -62.4375 200.625 C-63.75432404 199.30315301 -65.07137926 197.98153628 -66.38867188 196.66015625 C-69.59512373 193.44275701 -72.79841629 190.22224319 -76 187 C-74.58372032 183.78700915 -72.88182508 181.62912109 -70.40820312 179.14941406 C-69.67404175 178.40894836 -68.93988037 177.66848267 -68.18347168 176.90557861 C-67.39073853 176.11689392 -66.59800537 175.32820923 -65.78125 174.515625 C-64.96756958 173.70003113 -64.15388916 172.88443726 -63.31555176 172.04412842 C-61.59645354 170.32367022 -59.87483106 168.6057311 -58.15087891 166.89013672 C-55.50320366 164.25319068 -52.86638469 161.6057262 -50.23046875 158.95703125 C-48.560537 157.28842058 -46.88998522 155.62043014 -45.21875 153.953125 C-44.42601685 153.15634338 -43.63328369 152.35956177 -42.81652832 151.53863525 C-41.71528625 150.44684967 -41.71528625 150.44684967 -40.59179688 149.33300781 C-39.94496948 148.68777161 -39.29814209 148.0425354 -38.63171387 147.37774658 C-37 146 -37 146 -35 146 C-35 145.34 -35 144.68 -35 144 C-54.47 144 -73.94 144 -94 144 C-94 127.5 -94 111 -94 94 C-65.785 93.505 -65.785 93.505 -37 93 C-44.29624281 85.7431229 -44.29624281 85.7431229 -51.59814453 78.49194336 C-56.61490463 73.48881815 -61.47588925 68.45962962 -66 63 C-67.64646685 61.31337542 -69.31183067 59.64488294 -71 58 C-72.66666667 56.33333333 -74.33333333 54.66666667 -76 53 C-71.97251947 48.16701194 -67.75620587 43.61889996 -63.2890625 39.19140625 C-62.67606293 38.57982162 -62.06306335 37.968237 -61.43148804 37.33811951 C-59.49835436 35.41052441 -57.56175013 33.48646072 -55.625 31.5625 C-54.30315301 30.24567596 -52.98153628 28.92862074 -51.66015625 27.61132812 C-48.44275701 24.40487627 -45.22224319 21.20158371 -42 18 C-36.78635791 22.35449678 -31.94036509 26.93884653 -27.16796875 31.76953125 C-26.45014725 32.49113937 -25.73232574 33.2127475 -24.99275208 33.95622253 C-22.72187628 36.23922179 -20.45429568 38.52545 -18.1875 40.8125 C-15.18383786 43.84269012 -12.17692332 46.86959748 -9.16796875 49.89453125 C-8.47841599 50.59238235 -7.78886322 51.29023346 -7.07841492 52.00923157 C-6.44047501 52.6504747 -5.8025351 53.29171783 -5.14526367 53.95239258 C-4.30423347 54.801278 -4.30423347 54.801278 -3.44621277 55.66731262 C-2.01910597 57.10596381 -2.01910597 57.10596381 0 58 C0 38.86 0 19.72 0 0 Z " fill="#8959CD" transform="translate(126,46)"/>
<path d="M0 0 C16.5 0 33 0 50 0 C50.33 19.14 50.66 38.28 51 58 C64.2 44.8 77.4 31.6 91 18 C92.98 19.65 94.96 21.3 97 23 C94.92446352 23.5534764 93.15634036 24 91 24 C90.505 23.01 90.505 23.01 90 22 C89.54149658 22.45850342 89.08299316 22.91700684 88.6105957 23.3894043 C85.06982422 26.93017578 81.52905273 30.47094727 77.98828125 34.01171875 C77.29943848 34.70120605 76.6105957 35.39069336 75.90087891 36.10107422 C74.32795843 37.67237854 72.74877887 39.23741455 71.16796875 40.80078125 C69.34968994 42.64526949 67.65289668 44.50901082 66 46.5 C61.18735732 52.15546589 56.00592198 56.66321763 50 61 C49 60 49 60 48.87974548 57.71580505 C48.88196609 56.70542679 48.88418671 55.69504852 48.88647461 54.65405273 C48.88655014 53.5129454 48.88662567 52.37183807 48.88670349 51.19615173 C48.89186478 49.9545076 48.89702606 48.71286346 48.90234375 47.43359375 C48.9037587 46.16983414 48.90517365 44.90607452 48.90663147 43.60401917 C48.91129418 40.23875111 48.9202852 36.8735501 48.93133545 33.50830078 C48.94155154 30.0765033 48.94612951 26.64469891 48.95117188 23.21289062 C48.9622262 16.47524176 48.9789829 9.73762475 49 3 C47.33388095 2.957279 45.66617115 2.95936168 44 3 C43.67 3.33 43.34 3.66 43 4 C40.04470496 4.16029688 37.11017543 4.25957328 34.15234375 4.31640625 C33.2659169 4.33718735 32.37949005 4.35796844 31.46620178 4.37937927 C28.623383 4.444974 25.78046883 4.50380552 22.9375 4.5625 C21.01496394 4.6056758 19.09243766 4.64928978 17.16992188 4.69335938 C12.44671332 4.80066543 7.72340847 4.90190451 3 5 C3.00523682 6.05687012 3.01047363 7.11374023 3.01586914 8.20263672 C3.03430973 12.21727614 3.04557082 16.23191205 3.05493164 20.24658203 C3.05988444 21.96664057 3.06664849 23.68669508 3.07543945 25.40673828 C3.13464272 37.31007672 2.79631569 49.12259688 2 61 C1.01 60.67 0.02 60.34 -1 60 C-0.505 30.3 -0.505 30.3 0 0 Z " fill="#B04A5D" transform="translate(126,46)"/>
<path d="M0 0 C0.495 0.99 0.495 0.99 1 2 C-18.14 2 -37.28 2 -57 2 C-57.02277781 17.14591655 -57.02277781 17.14591655 -55 32 C-54.96154557 33.99963028 -54.95455719 36.00051633 -55 38 C-54.34 38.33 -53.68 38.66 -53 39 C-53.0721875 39.62648437 -53.144375 40.25296875 -53.21875 40.8984375 C-53.3115625 41.71570313 -53.404375 42.53296875 -53.5 43.375 C-53.5928125 44.18710938 -53.685625 44.99921875 -53.78125 45.8359375 C-54.03352351 47.96912825 -54.03352351 47.96912825 -54 50 C-35.19 50 -16.38 50 3 50 C3 51.32 3 52.64 3 54 C2.01 54.495 2.01 54.495 1 55 C0.67 55.99 0.34 56.98 0 58 C-0.99 58.33 -1.98 58.66 -3 59 C-4.70993434 60.6222454 -6.37347684 62.29413425 -8 64 C-8.721875 64.680625 -9.44375 65.36125 -10.1875 66.0625 C-11.96268553 67.96011212 -12.9821385 69.62498984 -14 72 C-14.66 72 -15.32 72 -16 72 C-17.15663142 73.39476142 -18.30886518 74.79342591 -19.4375 76.2109375 C-21.76774928 78.87907293 -24.4331679 81.10200007 -27.1328125 83.38671875 C-29.69059332 85.56949712 -29.69059332 85.56949712 -32 88 C-32 88.99 -32 89.98 -32 91 C-33.98 91.495 -33.98 91.495 -36 92 C-35.65213292 93.97536745 -35.65213292 93.97536745 -35 96 C-34.34 96.33 -33.68 96.66 -33 97 C-33.33 97.99 -33.66 98.98 -34 100 C-35.98 98.02 -37.96 96.04 -40 94 C-38.58372032 90.78700915 -36.88182508 88.62912109 -34.40820312 86.14941406 C-33.67404175 85.40894836 -32.93988037 84.66848267 -32.18347168 83.90557861 C-31.39073853 83.11689392 -30.59800537 82.32820923 -29.78125 81.515625 C-28.96756958 80.70003113 -28.15388916 79.88443726 -27.31555176 79.04412842 C-25.59645354 77.32367022 -23.87483106 75.6057311 -22.15087891 73.89013672 C-19.50320366 71.25319068 -16.86638469 68.6057262 -14.23046875 65.95703125 C-12.560537 64.28842058 -10.88998522 62.62043014 -9.21875 60.953125 C-8.02965027 59.75795258 -8.02965027 59.75795258 -6.81652832 58.53863525 C-6.08236694 57.8107782 -5.34820557 57.08292114 -4.59179688 56.33300781 C-3.94496948 55.68777161 -3.29814209 55.0425354 -2.63171387 54.37774658 C-1 53 -1 53 1 53 C1 52.34 1 51.68 1 51 C-18.47 51 -37.94 51 -58 51 C-58 34.5 -58 18 -58 1 C-29.29 0.505 -29.29 0.505 0 0 Z " fill="#523B9F" transform="translate(90,139)"/>
<path d="M0 0 C1.98 0.495 1.98 0.495 4 1 C4.16949902 6.19182047 4.32982671 11.38381986 4.48217773 16.57617188 C4.53508276 18.33731437 4.59036153 20.09838741 4.64819336 21.859375 C5.23251098 39.74457516 5.23251098 39.74457516 4.13647461 48.38574219 C3.87685815 51.74499083 3.87685815 51.74499083 5 58 C20.18 58.33 35.36 58.66 51 59 C51 39.53 51 20.06 51 0 C52.32 0.33 53.64 0.66 55 1 C54.67 1.66 54.34 2.32 54 3 C53.505 2.505 53.505 2.505 53 2 C52.67 21.14 52.34 40.28 52 60 C35.5 60 19 60 2 60 C2 40.86 2 21.72 2 2 C1.01 2.33 0.02 2.66 -1 3 C-0.67 2.01 -0.34 1.02 0 0 Z " fill="#2B7C91" transform="translate(124,225)"/>
<path d="M0 0 C15.84 0 31.68 0 48 0 C48 0.66 48 1.32 48 2 C46.7934375 1.9690625 46.7934375 1.9690625 45.5625 1.9375 C43.06645115 1.70366379 43.06645115 1.70366379 42 3 C39.04470496 3.16029688 36.11017543 3.25957328 33.15234375 3.31640625 C32.2659169 3.33718735 31.37949005 3.35796844 30.46620178 3.37937927 C27.623383 3.444974 24.78046883 3.50380552 21.9375 3.5625 C20.01496394 3.6056758 18.09243766 3.64928978 16.16992188 3.69335938 C11.44671332 3.80066543 6.72340847 3.90190451 2 4 C2.00523682 5.05687012 2.01047363 6.11374023 2.01586914 7.20263672 C2.03430973 11.21727614 2.04557082 15.23191205 2.05493164 19.24658203 C2.05988444 20.96664057 2.06664849 22.68669508 2.07543945 24.40673828 C2.13464272 36.31007672 1.79631569 48.12259688 1 60 C0.01 59.34 -0.98 58.68 -2 58 C-1.34 58 -0.68 58 0 58 C0 38.86 0 19.72 0 0 Z " fill="#F78952" transform="translate(127,47)"/>
<path d="M0 0 C0.495 1.98 0.495 1.98 1 4 C0.44570312 4.45890625 -0.10859375 4.9178125 -0.6796875 5.390625 C-1.40414062 6.00421875 -2.12859375 6.6178125 -2.875 7.25 C-3.59429687 7.85328125 -4.31359375 8.4565625 -5.0546875 9.078125 C-6.97052118 10.97087634 -7.96449045 12.53657727 -9 15 C-9.66 15 -10.32 15 -11 15 C-12.15663142 16.39476142 -13.30886518 17.79342591 -14.4375 19.2109375 C-16.76774928 21.87907293 -19.4331679 24.10200007 -22.1328125 26.38671875 C-24.69059332 28.56949712 -24.69059332 28.56949712 -27 31 C-27 31.99 -27 32.98 -27 34 C-28.98 34.495 -28.98 34.495 -31 35 C-30.65213292 36.97536745 -30.65213292 36.97536745 -30 39 C-29.34 39.33 -28.68 39.66 -28 40 C-28.33 40.99 -28.66 41.98 -29 43 C-30.98 41.02 -32.96 39.04 -35 37 C-33.63886987 33.95418514 -32.10669904 31.86160974 -29.74365234 29.51660156 C-29.08311859 28.85621887 -28.42258484 28.19583618 -27.74203491 27.51544189 C-27.03052277 26.81425232 -26.31901062 26.11306274 -25.5859375 25.390625 C-24.49147812 24.30041046 -24.49147812 24.30041046 -23.37490845 23.18817139 C-21.0462612 20.87070802 -18.71075174 18.5603005 -16.375 16.25 C-14.79381347 14.67884556 -13.21307875 13.10723629 -11.6328125 11.53515625 C-7.7604331 7.68481347 -3.88239829 3.84023883 0 0 Z " fill="#185FC5" transform="translate(85,196)"/>
<path d="M0 0 C0.99 0.33 1.98 0.66 3 1 C-7.56 11.56 -18.12 22.12 -29 33 C-29.33 32.01 -29.66 31.02 -30 30 C-29.34 29.67 -28.68 29.34 -28 29 C-27.5359375 27.7625 -27.5359375 27.7625 -27.0625 26.5 C-26.711875 25.675 -26.36125 24.85 -26 24 C-25.01 23.67 -24.02 23.34 -23 23 C-22.566875 21.7934375 -22.566875 21.7934375 -22.125 20.5625 C-21 18 -21 18 -18.6875 17 C-17.800625 16.67 -16.91375 16.34 -16 16 C-13.14723047 13.43250742 -10.71394166 10.66641443 -8.3125 7.6875 C-7.549375 6.800625 -6.78625 5.91375 -6 5 C-5.34 5 -4.68 5 -4 5 C-4 4.34 -4 3.68 -4 3 C-2.68 2.67 -1.36 2.34 0 2 C0 1.34 0 0.68 0 0 Z " fill="#E721C8" transform="translate(246,102)"/>
<path d="M0 0 C1.32 1.32 2.64 2.64 4 4 C3.01 4.33 2.02 4.66 1 5 C0.505 4.01 0.505 4.01 0 3 C-0.48879639 3.48879639 -0.97759277 3.97759277 -1.48120117 4.48120117 C-11.32080078 14.32080078 -21.16040039 24.16040039 -31 34 C-30.67 34.99 -30.34 35.98 -30 37 C-29.34 37 -28.68 37 -28 37 C-28.33 37.99 -28.66 38.98 -29 40 C-30.65 38.35 -32.3 36.7 -34 35 C-29.97251947 30.16701194 -25.75620587 25.61889996 -21.2890625 21.19140625 C-20.36956314 20.27402931 -20.36956314 20.27402931 -19.43148804 19.33811951 C-17.49835436 17.41052441 -15.56175013 15.48646072 -13.625 13.5625 C-12.30315301 12.24567596 -10.98153628 10.92862074 -9.66015625 9.61132812 C-6.44275701 6.40487627 -3.22224319 3.20158371 0 0 Z " fill="#E14F89" transform="translate(84,64)"/>
<path d="M0 0 C0.99 0.33 1.98 0.66 3 1 C-0.75 5.875 -0.75 5.875 -3 7 C-3 7.99 -3 8.98 -3 10 C-4.32 10.33 -5.64 10.66 -7 11 C-6.65213292 12.97536745 -6.65213292 12.97536745 -6 15 C-5.34 15.33 -4.68 15.66 -4 16 C-4.33 16.99 -4.66 17.98 -5 19 C-6.98 17.02 -8.96 15.04 -11 13 C-9.46356148 9.31930113 -7.21849055 7.01224796 -4.375 4.25 C-3.55773438 3.45078125 -2.74046875 2.6515625 -1.8984375 1.828125 C-0.95871094 0.92320312 -0.95871094 0.92320312 0 0 Z " fill="#1B6BBB" transform="translate(61,220)"/>
<path d="M0 0 C1.04005702 3.38018531 1.08004482 6.4780279 1 10 C1.66 10.33 2.32 10.66 3 11 C2.9278125 11.62648437 2.855625 12.25296875 2.78125 12.8984375 C2.6884375 13.71570313 2.595625 14.53296875 2.5 15.375 C2.4071875 16.18710938 2.314375 16.99921875 2.21875 17.8359375 C1.96647649 19.96912825 1.96647649 19.96912825 2 22 C1.01 22 0.02 22 -1 22 C-1.02887814 18.52085059 -1.04675687 15.04173169 -1.0625 11.5625 C-1.07087891 10.56927734 -1.07925781 9.57605469 -1.08789062 8.55273438 C-1.09111328 7.60849609 -1.09433594 6.66425781 -1.09765625 5.69140625 C-1.10289307 4.81685791 -1.10812988 3.94230957 -1.11352539 3.04125977 C-1 1 -1 1 0 0 Z " fill="#704DE2" transform="translate(34,167)"/>
<path d="M0 0 C1.98 1.65 3.96 3.3 6 5 C3.92446352 5.5534764 2.15634036 6 0 6 C-0.33 5.34 -0.66 4.68 -1 4 C-4.63 7.63 -8.26 11.26 -12 15 C-12.66 14.67 -13.32 14.34 -14 14 C-9.38 9.38 -4.76 4.76 0 0 Z " fill="#D36468" transform="translate(217,64)"/>
<path d="M0 0 C0.99 0.33 1.98 0.66 3 1 C-0.96 4.96 -4.92 8.92 -9 13 C-9.33 12.01 -9.66 11.02 -10 10 C-8.1875 7.3125 -8.1875 7.3125 -6 5 C-5.34 5 -4.68 5 -4 5 C-4 4.34 -4 3.68 -4 3 C-2.68 2.67 -1.36 2.34 0 2 C0 1.34 0 0.68 0 0 Z " fill="#E72BB6" transform="translate(246,102)"/>
<path d="M0 0 C0.66 0 1.32 0 2 0 C2.103125 0.763125 2.20625 1.52625 2.3125 2.3125 C3.06124739 5.23942162 3.51692929 6.31505916 6 8 C8.62570704 8.25069913 8.62570704 8.25069913 11 8 C10.67 9.98 10.34 11.96 10 14 C5.47384007 10.32167983 1.60575001 6.58913637 -2 2 C-1.34 1.34 -0.68 0.68 0 0 Z " fill="#CD20AF" transform="translate(66,111)"/>
<path d="M0 0 C0.99 0.33 1.98 0.66 3 1 C-0.465 3.97 -0.465 3.97 -4 7 C-5.65 5.02 -7.3 3.04 -9 1 C-8.2575 1.20625 -7.515 1.4125 -6.75 1.625 C-3.60314245 2.05411694 -2.71187889 1.44633541 0 0 Z " fill="#39A7B4" transform="translate(88,260)"/>
<path d="M0 0 C1.2065625 0.0309375 1.2065625 0.0309375 2.4375 0.0625 C-3.71284169 7.54541572 -3.71284169 7.54541572 -7.5625 10.0625 C-7.5625 9.0725 -7.5625 8.0825 -7.5625 7.0625 C-6.9025 6.7325 -6.2425 6.4025 -5.5625 6.0625 C-4.86038106 4.41045544 -4.19278587 2.74326231 -3.5625 1.0625 C-2.5625 0.0625 -2.5625 0.0625 0 0 Z " fill="#D028C8" transform="translate(223.5625,124.9375)"/>
<path d="M0 0 C1.32 0.33 2.64 0.66 4 1 C4 1.66 4 2.32 4 3 C3.34 3 2.68 3 2 3 C2.04125 4.11375 2.0825 5.2275 2.125 6.375 C2 10 2 10 0 12 C0 8.04 0 4.08 0 0 Z " fill="#B435D9" transform="translate(33,141)"/>
<path d="M0 0 C0.99 0.33 1.98 0.66 3 1 C2.67 1.99 2.34 2.98 2 4 C2.99 4.99 3.98 5.98 5 7 C4.67 7.99 4.34 8.98 4 10 C2.02 8.02 0.04 6.04 -2 4 C-1.34 2.68 -0.68 1.36 0 0 Z " fill="#237ABD" transform="translate(52,229)"/>
<path d="M0 0 C1.32 1.32 2.64 2.64 4 4 C3.01 4.33 2.02 4.66 1 5 C0.67 4.34 0.34 3.68 0 3 C-1.98 4.98 -3.96 6.96 -6 9 C-6.66 8.67 -7.32 8.34 -8 8 C-5.36 5.36 -2.72 2.72 0 0 Z " fill="#E77368" transform="translate(84,64)"/>
<path d="M0 0 C0.33 1.32 0.66 2.64 1 4 C-1.31 5.65 -3.62 7.3 -6 9 C-6.66 8.67 -7.32 8.34 -8 8 C-5.36 5.36 -2.72 2.72 0 0 Z " fill="#2B53BA" transform="translate(85,196)"/>
<path d="M0 0 C0.99 0 1.98 0 3 0 C3 2.97 3 5.94 3 9 C2.01 9 1.02 9 0 9 C0 6.03 0 3.06 0 0 Z " fill="#5856E3" transform="translate(33,180)"/>
<path d="M0 0 C1.98 1.65 3.96 3.3 6 5 C3.92446352 5.5534764 2.15634036 6 0 6 C-0.38218767 4.34385343 -0.71395102 2.67542976 -1 1 C-0.67 0.67 -0.34 0.34 0 0 Z " fill="#E57364" transform="translate(217,64)"/>
<path d="M0 0 C0.99 0.33 1.98 0.66 3 1 C-0.465 3.97 -0.465 3.97 -4 7 C-4 5.68 -4 4.36 -4 3 C-2.68 2.67 -1.36 2.34 0 2 C0 1.34 0 0.68 0 0 Z " fill="#E435A7" transform="translate(246,102)"/>
<path d="M0 0 C1.32 0.99 2.64 1.98 4 3 C3.34 4.32 2.68 5.64 2 7 C1.34 6.67 0.68 6.34 0 6 C0 4.02 0 2.04 0 0 Z " fill="#237DC7" transform="translate(248,228)"/>
</svg>
